<svg xmlns="http://www.w3.org/2000/svg" width="34.996" height="16" viewBox="0 0 34.996 16">
  <g id="left-arrow" transform="translate(0 -132)">
    <g id="Group_9" data-name="Group 9" transform="translate(0 132)">
      <path id="Path_196" data-name="Path 196" d="M33.629,138.71H4.678l4.8-4.5a1.24,1.24,0,0,0,0-1.825,1.425,1.425,0,0,0-1.933,0L.4,139.085h0a1.241,1.241,0,0,0,0,1.827h0l7.143,6.71a1.425,1.425,0,0,0,1.933,0,1.24,1.24,0,0,0,0-1.825l-4.8-4.5H33.629a1.292,1.292,0,1,0,0-2.581Z" transform="translate(0 -132)" fill="#191b1d"/>
    </g>
  </g>
</svg>
