<svg xmlns="http://www.w3.org/2000/svg" width="20" height="19" viewBox="0 0 20 19">
  <g id="cancel" transform="translate(0 -0.016)">
    <g id="Group_176" data-name="Group 176" transform="translate(0 0.016)">
      <path id="Path_50" data-name="Path 50" d="M12.2,9.516l7.478-7.1a1,1,0,0,0,0-1.47L19.025.319a1.138,1.138,0,0,0-1.547,0L10,7.424,2.522.319a1.114,1.114,0,0,0-.773-.3,1.113,1.113,0,0,0-.773.3L.32.942a1,1,0,0,0,0,1.47L7.8,9.516.32,16.62a1.006,1.006,0,0,0,0,1.47l.655.622a1.114,1.114,0,0,0,.773.3,1.114,1.114,0,0,0,.773-.3L10,11.608l7.478,7.1a1.115,1.115,0,0,0,.773.3h0a1.115,1.115,0,0,0,.773-.3l.655-.622a1.006,1.006,0,0,0,0-1.47Z" transform="translate(0 -0.016)" fill="#505458"/>
    </g>
  </g>
</svg>
