<svg id="Layer_1" data-name="Layer 1" xmlns="http://www.w3.org/2000/svg" width="46" height="26" viewBox="0 0 46 26">
  <path id="Path_454" data-name="Path 454" d="M215.132,89.31a5.6,5.6,0,1,0,5.507,5.608A5.558,5.558,0,0,0,215.132,89.31Zm0,9.047a3.45,3.45,0,0,1,0-6.9,3.45,3.45,0,0,1,0,6.9Z" transform="translate(-179.353 -74.518)" fill="#177ed0"/>
  <path id="Path_455" data-name="Path 455" d="M30.5,89.31a5.6,5.6,0,1,0,5.508,5.608A5.558,5.558,0,0,0,30.5,89.31Zm0,9.047a3.45,3.45,0,0,1,0-6.9,3.45,3.45,0,0,1,0,6.9Z" transform="translate(-20.65 -74.518)" fill="#177ed0"/>
  <path id="Path_456" data-name="Path 456" d="M45.936,14.475c-.121-.28-.633-.606-.787-.856-.259-.411-.549-1.383-.782-1.815a8.578,8.578,0,0,0-.869-1.22,7.936,7.936,0,0,0-1.168-1.007,10.837,10.837,0,0,0-2.351-1.007,26.6,26.6,0,0,0-2.941-.413l-1.365-.015L32.9,6.548,29.73,4.366,25.923,1.825S24.132.9,23.517.65a11.585,11.585,0,0,0-1.38-.423A8.733,8.733,0,0,0,21.016.059c-.929-.07-3.728,0-3.728,0H14.613S12.351.047,11.6.031a9.394,9.394,0,0,0-1.227,0A11.733,11.733,0,0,0,8.484.578a11.342,11.342,0,0,0-1.618.806A13.736,13.736,0,0,0,4.72,3.23,15.686,15.686,0,0,0,3.033,5.612a35.94,35.94,0,0,0-1.621,3.6C1.3,9.538,1,10.523,1,10.523L0,11.7v3.312l.153,3.416.36,1.459.549.525H2.832c0-.034-.018-.062-.018-.092,0-3.664,2.66-6.637,5.942-6.637s5.939,2.973,5.939,6.64a.729.729,0,0,1-.015.092H30.8c0-.034-.017-.062-.017-.092,0-3.664,2.659-6.637,5.939-6.637s5.942,2.969,5.942,6.637c0,.03-.018.059-.018.092h2.775l.549-4.641A4.736,4.736,0,0,0,45.936,14.475ZM29.069,8.8H6.388l-.662-.42-.1-.406.1-.436L7,5.563,8.162,4.313,9.87,3.119a19.054,19.054,0,0,1,1.855-.643,19.22,19.22,0,0,1,2.76-.148h4.753a23.594,23.594,0,0,1,2.5.311,21.047,21.047,0,0,1,2.272.99L26,4.835,28.465,6.54a7.039,7.039,0,0,1,1.006.713,1.457,1.457,0,0,1,.322.948c-.067.243-.724.6-.724.6Z" transform="translate(0 -0.011)" fill="#177ed0"/>
</svg>
