<svg xmlns="http://www.w3.org/2000/svg" width="244" height="79" viewBox="0 0 244 79">
  <g id="Layer_2" data-name="Layer 2" transform="translate(0.021 0.017)">
    <g id="Ñëîé_2" data-name="Ñëîé 2" transform="translate(-0.021 -0.017)">
      <path id="Path_262" data-name="Path 262" d="M224.122,313.293c-19.568-.425-44.778-.683-72.289-.683-25.7,0-49.391.235-68.352.6l-13.376.314c-19.2.526-30.975,1.237-30.975,2.018,0,1.622,50.464,2.933,112.714,2.933s112.717-1.312,112.717-2.933c0-.732-10.341-1.408-27.432-1.917Z" transform="translate(-29.943 -239.477)" fill="#a3a3a3"/>
      <path id="Path_263" data-name="Path 263" d="M545.869,119.05H534.64a2.006,2.006,0,0,0,.059.4H545.81A1.815,1.815,0,0,0,545.869,119.05Z" transform="translate(-409.176 -91.19)" fill="#434657"/>
      <path id="Path_264" data-name="Path 264" d="M537.6,124.954a2.347,2.347,0,0,1-.737-.4,2.228,2.228,0,0,0,.737.57c1.246.624,7.486.624,8.734,0a2.276,2.276,0,0,0,.737-.575,2.407,2.407,0,0,1-.737.4A29.449,29.449,0,0,1,537.6,124.954Z" transform="translate(-410.875 -95.404)" fill="#434657"/>
      <path id="Path_265" data-name="Path 265" d="M59.511,183.539h0a17.571,17.571,0,0,1,32.524-3.872h0a17.484,17.484,0,0,1,2.074,8.26,17.754,17.754,0,0,1-.2,2.637h2.063c.1-.582.174-1.173.221-1.769.038-.514.066-1.033.066-1.558,0-9.26-6.953-17.09-15.471-19.423l1.056-.054-4.639.056a58.935,58.935,0,0,0-7.509.669c-7.7,2.99-12.055,9.492-12.8,15.438-.1.814-.406,3.389-.469,4.4a.99.99,0,0,1,.631.772q.106.786.279,1.551h1.816a17.835,17.835,0,0,1-.209-2.715,17.586,17.586,0,0,1,.563-4.4Z" transform="translate(-43.183 -128.548)"/>
      <path id="Path_266" data-name="Path 266" d="M797.376,185.033v-.014a20.162,20.162,0,0,0,.122-2.95.96.96,0,0,1,.76-.983l.594-.122h0l-1.408.286a20.108,20.108,0,0,0-17.726-18.51c-.293-.033-.584-.059-.878-.08l-3.189.019a20.1,20.1,0,0,0-18.226,22.213h-.765a.866.866,0,0,1,.859.739c.038.253.082.5.127.753H760.3a17.65,17.65,0,0,1,.209-7.859h0a17.571,17.571,0,0,1,32.524-3.872h0a17.573,17.573,0,0,1,1.729,11.651H797.5l.122-.486a.972.972,0,0,1-.249-.786Z" transform="translate(-579.097 -124.643)"/>
      <path id="Path_267" data-name="Path 267" d="M561.36,22.846c7.486-1.877-8.11,9.98-8.11,9.98h15.1l.415-.469L570.378,14.1h-.291C570.056,14.138,553.881,24.716,561.36,22.846Z" transform="translate(-423.419 -10.787)" fill="#a3b1c9"/>
      <path id="Path_268" data-name="Path 268" d="M345.625,34.563l.068-2.3a4.525,4.525,0,0,1,1.572-3.353A6.214,6.214,0,0,1,351.35,27.5c4.161-.007,4.792,2.072,4.792,3.33,0,2.682-2.307,3.52-4.541,3.7a12.866,12.866,0,0,1-1.628.108h0l11.782-.066s14.333-10.616,9.351-11.864,7.183-5.867,10.194-6.3c.115-.016.235-.031.366-.045-.429.033-.833.066-1.2.1-6.237.624-17.466,2.494-25.578,6.237-5.059,2.347-20.1,10.869-21.694,11.775v.077Z" transform="translate(-254.998 -12.525)" fill="#a3b1c9"/>
      <path id="Path_269" data-name="Path 269" d="M682.458,30.423s4.367-1.877,3.755-3.119-16.22-7.486-27.455-9.982c-8.267-1.835-19.007-2.959-20.415-3.1L636.49,33.542c1.974,0,20.826-.143,28.516-.624C674.972,32.3,679.963,31.672,682.458,30.423Z" transform="translate(-487.126 -10.879)" fill="#a3b1c9"/>
      <path id="Path_270" data-name="Path 270" d="M19.3,139.759a1.247,1.247,0,0,1-.427-.045c-.451-.15-.458-.5-.235-1.612s.514-4.419,2.816-4.907c-.361-.8-10.456-1.453-15.208,5.092-.617.849-1.734,3.36-.136,5.12,1.04,1.143,3.827.5,5.416,0C15.383,142.2,16.69,141.094,19.3,139.759Z" transform="translate(-4.041 -101.664)" fill="#fffce9"/>
      <path id="Path_271" data-name="Path 271" d="M63.669,134.5a4.023,4.023,0,0,0-1.725,2.255,18.929,18.929,0,0,0-.577,2.6c-.235,1.15-.235,1.518.235,1.673a1.033,1.033,0,0,0,.329.049h0a10.736,10.736,0,0,0,1.955-1.281,6.93,6.93,0,0,0,1.514-1.72c.939-1.575.76-3.074-1.1-3.82A1.989,1.989,0,0,0,63.669,134.5Z" transform="translate(-46.844 -102.85)" fill="#ffb56c"/>
      <path id="Path_272" data-name="Path 272" d="M385.791,73.319,385.77,74h0v-.035H389.5c-.021-.054-.061-.169-.106-.324-.035-.115-.07-.253-.1-.4-.012-.052-.021-.1-.031-.155-.153-.866-.4-1.99.9-2.124l.045-.014h0a2.173,2.173,0,0,1,.549-.066c.35,0,.7-.012,1.075-.042,2.243-.169,4.557-1.018,4.557-3.689,0-1.246-.624-3.325-4.785-3.325a6.214,6.214,0,0,0-4.085,1.408,4.524,4.524,0,0,0-1.572,3.353l-.068,2.3-.049,2.436Z" transform="translate(-295.24 -48.892)" fill="#151b26"/>
      <path id="Path_273" data-name="Path 273" d="M528.387,119.474c.831.432,3.325.648,5.822.648h.939c.155,0,.307,0,.469-.014.61-.019,1.2-.054,1.744-.1.272-.023.533-.049.779-.08s.469-.066.69-.1a4.572,4.572,0,0,0,1.218-.34,3.093,3.093,0,0,0,1.664-2.593H526.74A3.093,3.093,0,0,0,528.387,119.474Zm.206-2.077h11.228a1.811,1.811,0,0,1-.059.4h.059a1.274,1.274,0,0,1-.509.9,2.277,2.277,0,0,1-.737.575c-1.248.624-7.488.624-8.734,0a2.227,2.227,0,0,1-.737-.575,1.284,1.284,0,0,1-.512-.9h.059a2.005,2.005,0,0,1-.059-.4Z" transform="translate(-403.13 -89.539)" fill="#151b26"/>
      <path id="Path_274" data-name="Path 274" d="M535.152,121.639a2.345,2.345,0,0,0,.737.4,29.607,29.607,0,0,0,8.734,0,2.406,2.406,0,0,0,.737-.4,1.274,1.274,0,0,0,.509-.9H534.64A1.283,1.283,0,0,0,535.152,121.639Z" transform="translate(-409.176 -92.486)" fill="#a3a3a3"/>
      <path id="Path_275" data-name="Path 275" d="M639.425,219.362c3.755-1.246,5.615-4.367,4.367-6.237s-5.613-1.248-5.613-1.248l-19.674.608c-.361,2.135-.777,4.85-1.155,7.406C629.416,219.869,638.331,219.728,639.425,219.362Z" transform="translate(-472.478 -162.237)" fill="#595f72"/>
      <path id="Path_276" data-name="Path 276" d="M290.472,221.654c4.069.056,47.779.657,75.643.627.373-2.527.784-5.224,1.147-7.38l-77.072,2.382C290.267,218.516,290.361,219.962,290.472,221.654Z" transform="translate(-222.089 -164.627)" fill="#595f72"/>
      <path id="Path_277" data-name="Path 277" d="M679.486,82.376c-3.884.777-26.986.788-52.646.575a21.783,21.783,0,0,1,.612,3.067,56.324,56.324,0,0,1-.021,9.8c48.978-.11,93.88.223,96.03.235a18.106,18.106,0,0,0-1.673-3.217,15.906,15.906,0,0,1-1.765-3.989l-.026.019h-.012c-1,.5-3.726,1.079-7.455.6a12.275,12.275,0,0,1-2.347-.554L710,88.864l-.117-.059a13.444,13.444,0,0,1-2.476-1.213c-1.37-.849-2.922-1.92-3.255-2.581-.624-1.246-.056-2.246,2.417-2.581a39.134,39.134,0,0,1,9.386.286h0l-1.682-2.436s-.624-1.877-3.755-2.506c-2.816-.566-13.223-1.643-15.276-1.844h0C690.539,78.293,684.428,81.388,679.486,82.376Z" transform="translate(-479.741 -58.177)" fill="#595f72"/>
      <path id="Path_278" data-name="Path 278" d="M314.559,103.005c.03.15.066.289.1.4.045.155.085.27.106.324h.016l.312.408.312.411h-4.367v-.8h0l.021-.683c-11.043-.138-18.991-.331-20.706-.373l-.045.031c-1.45,1.089-2.053,7.995-2.189,14.326,23.088-.469,51.771-.685,79.245-.749a55.38,55.38,0,0,0,.026-9.691,19.6,19.6,0,0,0-.666-3.184c-18.149-.153-37.489-.415-52.191-.594C314.538,102.89,314.547,102.942,314.559,103.005Zm44.51,3.027a3.093,3.093,0,0,1-1.664,2.593,4.57,4.57,0,0,1-1.218.34c-.214.038-.444.073-.69.1s-.507.056-.779.08c-.544.047-1.133.082-1.744.1-.153,0-.305,0-.469.014h-.939c-2.5,0-4.991-.216-5.822-.648a3.093,3.093,0,0,1-1.664-2.593Z" transform="translate(-220.505 -78.681)" fill="#595f72"/>
      <path id="Path_279" data-name="Path 279" d="M26.545,118.7l-.052.021A58.936,58.936,0,0,1,34,118.052L38.642,118c7.676-.371,17.393-.666,28.394-.9.1-5.66.554-12.306,2.006-14.359-2.347.1-13.969.61-22.9,1.173-5.611.35-16.9,1.748-24.933,2.689-.2.023-.361-.059-.558-.035-4.193,1.028-6.906,1.779-6.906,1.779a50.524,50.524,0,0,0-8.765,3.607,8.9,8.9,0,0,0-4.365,5.608,36.544,36.544,0,0,0-.631,7.486c0,.178.012.38.023.6a44.027,44.027,0,0,1,9.152-3.855C12.747,120.635,20.645,119.319,26.545,118.7Zm-24.2,1.617c-1.6-1.758-.408-4.142.207-4.989a10.758,10.758,0,0,1,4.107-3.236,19.176,19.176,0,0,1,2.964-1.131,31.027,31.027,0,0,1,3.6-.885c1.643-.277,3.532-.364,4.928.563h0a1.92,1.92,0,0,1,.732.908c.446,1.159-.354,2.525-1.213,3.431a9.729,9.729,0,0,1-2.645,1.9,38.342,38.342,0,0,1-7.589,3.431C5.85,120.818,3.384,121.461,2.344,120.316Z" transform="translate(0.021 -78.724)" fill="#595f72"/>
      <path id="Path_280" data-name="Path 280" d="M957.972,103.188c-2.473.326-3.051,1.326-2.417,2.581.333.669,1.877,1.739,3.255,2.581a13.443,13.443,0,0,0,2.476,1.213l.3.1a12.28,12.28,0,0,0,2.347.554c3.729.483,6.451-.094,7.455-.6h.012l.026-.019h0c1.173-.688-.683-4.353-2.532-5.585a4.225,4.225,0,0,0-1.528-.533h0A38.644,38.644,0,0,0,957.972,103.188Zm9.856,1.675c1.326.333,2.539,1.155,1.521,1.833-.819.547-4.031.469-5.965.312a11.317,11.317,0,0,1-2.689-.584,7.463,7.463,0,0,1-2.156-1.086.594.594,0,0,1-.216-.23h0a.761.761,0,0,1-.033-.082c-.143-.5.852-.854,2.49-.854a38.341,38.341,0,0,1,7.056.692Z" transform="translate(-731.138 -78.924)" fill="#dc262d"/>
      <path id="Path_281" data-name="Path 281" d="M967.953,108.714a.714.714,0,0,0,.033.082h0a1.05,1.05,0,0,0,.216.235,7.461,7.461,0,0,0,2.156,1.086,11.32,11.32,0,0,0,2.692.591c1.933.162,5.146.235,5.965-.312,1.018-.678-.195-1.5-1.521-1.833a38.261,38.261,0,0,0-7.056-.7C968.8,107.86,967.805,108.217,967.953,108.714Z" transform="translate(-740.797 -82.621)" fill="#ffb56c"/>
      <path id="Path_282" data-name="Path 282" d="M385.79,107.085v.781h4.367l-.312-.408-.312-.408H385.79Z" transform="translate(-295.255 -81.999)" fill="#434657"/>
      <path id="Path_283" data-name="Path 283" d="M464.248,21c4.982,1.248-9.358,11.853-9.358,11.853h23.081s15.6-11.853,8.11-9.98,8.7-8.708,8.727-8.732h0s-14.814-.1-20.007.521c-.127.014-.251.028-.366.045C471.431,15.122,459.257,19.754,464.248,21Z" transform="translate(-348.14 -10.815)" fill="#748aaa"/>
      <path id="Path_284" data-name="Path 284" d="M10.737,189.515l-7.368,1H12.92a1.126,1.126,0,0,1,.439.089c.054-1.014.357-3.588.469-4.4.744-5.946,5.1-12.437,12.8-15.438l.052-.021c-5.9.62-13.8,1.927-17.386,3.088A44.194,44.194,0,0,0,.14,177.684h0a60.6,60.6,0,0,0,1.009,7.643l9.588,1.07Z" transform="translate(-0.102 -130.824)" fill="#303a4f"/>
      <path id="Path_285" data-name="Path 285" d="M291.39,243.68c.063.986.134,2.056.209,3.217h75.058c.117-.821.235-1.694.375-2.581C339.169,244.337,295.459,243.736,291.39,243.68Z" transform="translate(-223.007 -186.665)" fill="#303a4f"/>
      <path id="Path_286" data-name="Path 286" d="M189.818,172.467c-.066-1.063-.176-4.557-.108-8.537-11.013.235-20.73.526-28.394.9l-1.056.054c8.518,2.333,15.471,10.163,15.471,19.423,0,.526-.028,1.044-.066,1.558h15.018C190.158,177.827,189.923,174.147,189.818,172.467Z" transform="translate(-122.648 -125.611)" fill="#303a4f"/>
      <path id="Path_287" data-name="Path 287" d="M288.125,169.967c.063,1.025.176,2.795.373,5.841l77.072-2.382c.169-1,.326-1.891.469-2.581a91.785,91.785,0,0,0,1.216-10.135c-27.474.063-56.157.27-79.245.749C287.94,164.749,288,167.886,288.125,169.967Z" transform="translate(-220.397 -123.128)" fill="#303a4f"/>
      <path id="Path_288" data-name="Path 288" d="M618.944,160.607a91.306,91.306,0,0,1-1.23,10.3c-.129.648-.277,1.469-.434,2.4l19.674-.608s4.367-.624,5.613,1.248-.624,4.991-4.367,6.237c-1.094.366-10.008.507-22.075.528-.131.894-.258,1.769-.375,2.581h33.831a20.1,20.1,0,0,1,18.226-22.213A20.356,20.356,0,0,1,671,161.06c.293.021.584.047.878.08a20.108,20.108,0,0,1,17.738,18.51l1.408-.286,23.135-4.754c.57-4.789,1.1-13.279,1.1-13.279s-.061-.185-.181-.493h-.087C712.824,160.83,667.922,160.5,618.944,160.607Z" transform="translate(-471.253 -123.05)" fill="#303a4f"/>
      <path id="Path_289" data-name="Path 289" d="M348.612,136.061a.878.878,0,0,0,.84-1.147,19.986,19.986,0,0,1-.7-2.741c-.045-.251-.089-.5-.127-.753a.866.866,0,0,0-.859-.739H314.691c.117-.821.235-1.7.375-2.581.378-2.555.793-5.27,1.155-7.406.157-.927.305-1.748.434-2.4a92.969,92.969,0,0,0,1.23-10.3,55.859,55.859,0,0,0,.021-9.8,21.77,21.77,0,0,0-.612-3.067,6.986,6.986,0,0,0-1.509-3.112l-.206-.188-.038.038-.415.469-.106.115.192.19a6.506,6.506,0,0,1,1.2,2.492,19.611,19.611,0,0,1,.666,3.184,55.156,55.156,0,0,1-.026,9.691,91.148,91.148,0,0,1-1.216,10.135c-.141.7-.3,1.582-.469,2.581-.364,2.157-.774,4.853-1.147,7.38-.131.9-.258,1.769-.375,2.581H238.786c-.075-1.162-.145-2.232-.209-3.217-.11-1.692-.2-3.137-.282-4.372-.2-3.051-.31-4.815-.373-5.841-.129-2.081-.185-5.219-.117-8.513.136-6.336.739-13.237,2.189-14.314l.045-.031c2.419-1.762,8.152-1.783,8.213-1.783h.141v-.58h-.141c-.235,0-6.047.023-8.589,1.929a1.877,1.877,0,0,0-.4.425c-1.453,2.053-1.91,8.7-2.006,14.359-.068,3.989.042,7.474.108,8.537.106,1.68.34,5.36.861,13.394H223.211c-.047.6-.124,1.187-.221,1.769a20.2,20.2,0,0,1-.568,2.478.875.875,0,0,0,.831,1.133ZM248.107,92.318h0c-.894.016-5.834.174-8.15,1.774C242.3,92.468,247.2,92.339,248.107,92.318Zm-9.6,38.362q-.113-1.741-.209-3.222c0-.153-.019-.3-.028-.448-.359-5.547-.535-8.34-.624-9.741-.115-1.877-.178-4.822-.124-8.011-.049,3.419.03,6.486.124,8.011.089,1.408.265,4.193.624,9.741,0,.148.019.3.028.448Q238.394,128.942,238.5,130.68Z" transform="translate(-170.194 -70.417)" fill="#151b26"/>
      <path id="Path_290" data-name="Path 290" d="M22.627,255.092a1.126,1.126,0,0,0-.439-.092H12.637l-.387.054.178.279c.049.075.1.153.153.235a11.072,11.072,0,0,0,5.85,4.107,13.5,13.5,0,0,0,4.555.709.977.977,0,0,0,1.028-1.22,17.817,17.817,0,0,1-.469-1.748q-.174-.767-.279-1.551A.99.99,0,0,0,22.627,255.092Z" transform="translate(-9.37 -195.342)" fill="#151b26"/>
      <path id="Path_291" data-name="Path 291" d="M931.624,225.183l-.594.122a.96.96,0,0,0-.76.983,20.161,20.161,0,0,1-.122,2.95v.016a.972.972,0,0,0,.256.779.939.939,0,0,0,.878.286l1.124-.235,15.922-2.816h.056c.448-.108,5.632-1.441,6.223-5.651.026-.171.049-.352.073-.54v-.07q.031-.253.063-.521v-.047h0Z" transform="translate(-711.869 -168.877)" fill="#151b26"/>
      <path id="Path_292" data-name="Path 292" d="M94.463,241.429a17.574,17.574,0,0,0,7.685-12.024,17.76,17.76,0,0,0,.2-2.638,17.485,17.485,0,0,0-2.06-8.258h0c.023.042.047.085.068.127a17.437,17.437,0,0,1-2.2,5.479,13.636,13.636,0,1,1-26.986,3.644,17.612,17.612,0,0,1-3.579-4.693c.047-.235.1-.453.16-.676h0a17.585,17.585,0,0,0-.556,4.376,17.835,17.835,0,0,0,.209,2.715,17.576,17.576,0,0,0,27.054,11.947Z" transform="translate(-51.426 -167.458)" fill="#17191c"/>
      <path id="Path_293" data-name="Path 293" d="M86.065,178.82A17.575,17.575,0,0,0,69.05,192c-.057.238-.113.451-.16.679a17.612,17.612,0,0,0,3.579,4.693c-.023-.329-.04-.657-.04-.993a13.638,13.638,0,0,1,27.014-2.652,17.437,17.437,0,0,0,2.2-5.479c-.021-.042-.045-.084-.068-.127A17.562,17.562,0,0,0,86.065,178.82Z" transform="translate(-52.719 -137.011)" fill="#282f39"/>
      <path id="Path_294" data-name="Path 294" d="M98.5,196.78a13.359,13.359,0,1,0,13.357,13.358A13.36,13.36,0,0,0,98.5,196.78Zm8.063,5.214-4.268,4.374a5.315,5.315,0,0,0-2.067-1.288l1.657-5.9A11.47,11.47,0,0,1,106.565,201.994Zm-6.2,8.143a1.861,1.861,0,1,1-1.861-1.858,1.861,1.861,0,0,1,1.861,1.858ZM98.5,198.676a11.463,11.463,0,0,1,3.116.432L99.959,205a5.35,5.35,0,0,0-1.46-.206,5.252,5.252,0,0,0-1.145.127l-1.511-5.925a11.416,11.416,0,0,1,2.659-.314Zm-2.926.38,1.5,5.93a5.322,5.322,0,0,0-2.377,1.384L90.324,202.1a11.468,11.468,0,0,1,5.252-3.046ZM90.138,202.3l4.379,4.273a5.31,5.31,0,0,0-1.2,2.293l-5.937-1.511a11.428,11.428,0,0,1,2.757-5.055Zm-3.1,7.833a11.457,11.457,0,0,1,.277-2.511l5.93,1.511a5.256,5.256,0,0,0,.134,2.539L87.5,213.333A11.43,11.43,0,0,1,87.043,210.137Zm.535,3.468,5.9-1.659a5.326,5.326,0,0,0,1.356,2.074L90.563,218.4a11.437,11.437,0,0,1-2.985-4.792Zm3.187,4.984,4.273-4.381a5.359,5.359,0,0,0,2.03,1.077l-1.657,5.888A11.451,11.451,0,0,1,90.765,218.589Zm7.744,3.008a11.531,11.531,0,0,1-2.813-.349l1.654-5.893a5.446,5.446,0,0,0,1.173.129,5.345,5.345,0,0,0,1.22-.143l1.511,5.928a11.5,11.5,0,0,1-2.753.329Zm3-.4L100,215.271a5.359,5.359,0,0,0,2.168-1.239l4.379,4.271a11.456,11.456,0,0,1-5.045,2.9Zm5.233-3.1-4.374-4.268a5.346,5.346,0,0,0,1.232-2.058l5.911,1.509a11.407,11.407,0,0,1-2.776,4.818Zm3.227-7.967a11.543,11.543,0,0,1-.371,2.886l-5.932-1.511a5.226,5.226,0,0,0,.075-2.448l5.89-1.657a11.4,11.4,0,0,1,.331,2.729Zm-6.3-1.338a5.353,5.353,0,0,0-1.187-2.211l4.273-4.383a11.428,11.428,0,0,1,2.8,4.928Z" transform="translate(-65.156 -150.827)" fill="#989b9e"/>
      <path id="Path_295" data-name="Path 295" d="M97.629,195.59A13.653,13.653,0,0,0,84,209.226c0,.336.016.664.04.993a13.636,13.636,0,1,0,13.6-14.629Zm0,26.986a13.355,13.355,0,1,1,0,.009Z" transform="translate(-64.284 -149.916)" fill="#545759"/>
      <path id="Path_296" data-name="Path 296" d="M113.383,271.05l-4.273,4.381a11.451,11.451,0,0,0,4.646,2.581l1.664-5.885A5.359,5.359,0,0,1,113.383,271.05Z" transform="translate(-83.501 -207.669)" fill="#0b1d1e"/>
      <path id="Path_297" data-name="Path 297" d="M101.427,261.41l-5.9,1.659a11.437,11.437,0,0,0,2.985,4.792l4.268-4.376A5.327,5.327,0,0,1,101.427,261.41Z" transform="translate(-73.108 -200.291)" fill="#0b1d1e"/>
      <path id="Path_298" data-name="Path 298" d="M132.85,276.023a5.443,5.443,0,0,1-1.173-.129l-1.657,5.892a11.536,11.536,0,0,0,5.552.021l-1.511-5.927a5.343,5.343,0,0,1-1.211.143Z" transform="translate(-99.504 -211.366)" fill="#0b1d1e"/>
      <path id="Path_299" data-name="Path 299" d="M99.361,245.511a5.358,5.358,0,0,1,.1-.995L93.527,243a11.48,11.48,0,0,0,.178,5.707l5.885-1.657A5.32,5.32,0,0,1,99.361,245.511Z" transform="translate(-71.363 -186.15)" fill="#0b1d1e"/>
      <path id="Path_300" data-name="Path 300" d="M158.53,262.748l4.374,4.268a11.406,11.406,0,0,0,2.776-4.818l-5.928-1.509A5.346,5.346,0,0,1,158.53,262.748Z" transform="translate(-121.324 -199.74)" fill="#0b1d1e"/>
      <path id="Path_301" data-name="Path 301" d="M133.416,210.973a5.351,5.351,0,0,1,1.46.207l1.657-5.888a11.423,11.423,0,0,0-5.773-.117l1.511,5.925A5.254,5.254,0,0,1,133.416,210.973Z" transform="translate(-100.071 -156.934)" fill="#0b1d1e"/>
      <path id="Path_302" data-name="Path 302" d="M101.836,224.593l-4.379-4.273a11.428,11.428,0,0,0-2.757,5.055l5.937,1.511A5.31,5.31,0,0,1,101.836,224.593Z" transform="translate(-72.473 -168.778)" fill="#0b1d1e"/>
      <path id="Path_303" data-name="Path 303" d="M113.981,212.41l-1.509-5.93a11.468,11.468,0,0,0-5.242,3.051L111.6,213.8a5.322,5.322,0,0,1,2.377-1.389Z" transform="translate(-82.062 -158.177)" fill="#0b1d1e"/>
      <path id="Path_304" data-name="Path 304" d="M164.275,244.8a5.292,5.292,0,0,1-.185,1.37l5.932,1.516a11.544,11.544,0,0,0,.364-2.882,11.4,11.4,0,0,0-.331-2.734l-5.89,1.657A5.258,5.258,0,0,1,164.275,244.8Z" transform="translate(-125.58 -185.437)" fill="#0b1d1e"/>
      <path id="Path_305" data-name="Path 305" d="M148.44,271.539l1.509,5.928a11.457,11.457,0,0,0,5.038-2.9l-4.379-4.271A5.36,5.36,0,0,1,148.44,271.539Z" transform="translate(-113.602 -207.095)" fill="#0b1d1e"/>
      <path id="Path_306" data-name="Path 306" d="M151.507,214.19l4.268-4.374A11.47,11.47,0,0,0,151.1,207l-1.657,5.895A5.315,5.315,0,0,1,151.507,214.19Z" transform="translate(-114.367 -158.575)" fill="#0b1d1e"/>
      <path id="Path_307" data-name="Path 307" d="M159.06,224.264a5.352,5.352,0,0,1,1.187,2.211l5.888-1.657a11.428,11.428,0,0,0-2.8-4.928Z" transform="translate(-121.73 -168.448)" fill="#0b1d1e"/>
      <circle id="Ellipse_64" data-name="Ellipse 64" cx="1.579" cy="1.579" r="1.579" transform="translate(31.766 57.785)" fill="#989b9e"/>
      <path id="Path_308" data-name="Path 308" d="M136.019,245.78a1.859,1.859,0,1,0,1.858,1.858A1.859,1.859,0,0,0,136.019,245.78Zm0,3.438a1.579,1.579,0,1,1,1.579-1.579A1.579,1.579,0,0,1,136.019,249.218Z" transform="translate(-102.673 -188.275)" fill="#545759"/>
      <path id="Path_309" data-name="Path 309" d="M803.755,213.75h0l.07.124a17.487,17.487,0,0,1-2.2,5.482A13.636,13.636,0,1,1,774.639,223a17.646,17.646,0,0,1-3.578-4.693c.049-.235.1-.453.16-.676h0a17.574,17.574,0,1,0,32.531-3.867Z" transform="translate(-589.813 -163.815)" fill="#17191c"/>
      <path id="Path_310" data-name="Path 310" d="M775.992,192.628c-.023-.328-.04-.659-.04-.993a13.636,13.636,0,0,1,27.014-2.652,17.488,17.488,0,0,0,2.208-5.482l-.07-.124a17.571,17.571,0,0,0-32.524,3.872c-.056.223-.11.448-.16.676A17.65,17.65,0,0,0,775.992,192.628Z" transform="translate(-591.159 -133.368)" fill="#282f39"/>
      <path id="Path_311" data-name="Path 311" d="M802.012,192a13.359,13.359,0,1,0,13.357,13.358A13.36,13.36,0,0,0,802.012,192Zm8.061,5.216-4.266,4.374a5.341,5.341,0,0,0-2.07-1.288l1.657-5.892a11.437,11.437,0,0,1,4.679,2.809Zm-6.2,8.143a1.859,1.859,0,1,1-1.859-1.859,1.859,1.859,0,0,1,1.859,1.859ZM802.012,193.9a11.455,11.455,0,0,1,3.112.431l-1.653,5.883a5.349,5.349,0,0,0-1.46-.206,5.274,5.274,0,0,0-1.148.127l-1.509-5.925a11.388,11.388,0,0,1,2.656-.307Zm-2.929.38,1.511,5.935a5.324,5.324,0,0,0-2.377,1.387l-4.376-4.273a11.447,11.447,0,0,1,5.242-3.046Zm-5.423,3.25,4.379,4.273a5.322,5.322,0,0,0-1.206,2.293l-5.942-1.511A11.437,11.437,0,0,1,793.66,197.529Zm-3.1,7.833a11.611,11.611,0,0,1,.277-2.506l5.932,1.511a5.289,5.289,0,0,0,.131,2.539l-5.885,1.657a11.517,11.517,0,0,1-.467-3.2Zm.516,3.468,5.9-1.659a5.35,5.35,0,0,0,1.359,2.074l-4.271,4.376A11.466,11.466,0,0,1,791.079,208.83Zm3.194,4.994,4.275-4.381a5.35,5.35,0,0,0,2.028,1.077l-1.654,5.885A11.447,11.447,0,0,1,794.273,213.823Zm7.744,3.008a11.432,11.432,0,0,1-2.817-.352l1.66-5.892a5.264,5.264,0,0,0,1.173.131,5.378,5.378,0,0,0,1.22-.145l1.509,5.928a11.376,11.376,0,0,1-2.75.321Zm3-.4-1.509-5.928a5.339,5.339,0,0,0,2.168-1.241l4.379,4.273a11.456,11.456,0,0,1-5.043,2.886Zm5.235-3.1-4.388-4.278A5.346,5.346,0,0,0,807.094,207l5.928,1.509a11.426,11.426,0,0,1-2.776,4.818Zm3.227-7.967a11.558,11.558,0,0,1-.366,2.882l-5.93-1.511a5.4,5.4,0,0,0,.183-1.37,5.3,5.3,0,0,0-.11-1.079l5.89-1.657a11.434,11.434,0,0,1,.329,2.727Zm-6.291-1.349A5.334,5.334,0,0,0,806,201.809l4.273-4.381a11.456,11.456,0,0,1,2.816,4.928Z" transform="translate(-603.58 -147.169)" fill="#989b9e"/>
      <path id="Path_312" data-name="Path 312" d="M801.109,190.82a13.655,13.655,0,0,0-13.638,13.638c0,.333.016.664.04.993a13.636,13.636,0,1,0,13.61-14.631Zm0,27a13.359,13.359,0,1,1,13.357-13.358A13.36,13.36,0,0,1,801.109,217.818Z" transform="translate(-602.677 -146.266)" fill="#545759"/>
      <path id="Path_313" data-name="Path 313" d="M816.886,266.29l-4.276,4.391a11.447,11.447,0,0,0,4.649,2.581l1.654-5.888A5.35,5.35,0,0,1,816.886,266.29Z" transform="translate(-621.918 -204.026)" fill="#0b1d1e"/>
      <path id="Path_314" data-name="Path 314" d="M804.9,256.65l-5.9,1.659a11.466,11.466,0,0,0,2.985,4.792l4.29-4.376A5.35,5.35,0,0,1,804.9,256.65Z" transform="translate(-611.502 -196.609)" fill="#0b1d1e"/>
      <path id="Path_315" data-name="Path 315" d="M836.353,271.256a5.269,5.269,0,0,1-1.173-.131l-1.659,5.892a11.458,11.458,0,0,0,5.552.021l-1.509-5.928A5.377,5.377,0,0,1,836.353,271.256Z" transform="translate(-637.921 -207.715)" fill="#0b1d1e"/>
      <path id="Path_316" data-name="Path 316" d="M802.863,240.766a5.363,5.363,0,0,1,.1-.995l-5.932-1.511a11.48,11.48,0,0,0,.178,5.707l5.885-1.657A5.321,5.321,0,0,1,802.863,240.766Z" transform="translate(-609.779 -182.519)" fill="#0b1d1e"/>
      <path id="Path_317" data-name="Path 317" d="M862,257.988l4.377,4.268a11.424,11.424,0,0,0,2.783-4.818l-5.927-1.509A5.348,5.348,0,0,1,862,257.988Z" transform="translate(-659.718 -196.057)" fill="#0b1d1e"/>
      <path id="Path_318" data-name="Path 318" d="M836.926,206.213a5.349,5.349,0,0,1,1.46.206l1.654-5.888a11.414,11.414,0,0,0-5.77-.117l1.509,5.925A5.277,5.277,0,0,1,836.926,206.213Z" transform="translate(-638.495 -153.287)" fill="#0b1d1e"/>
      <path id="Path_319" data-name="Path 319" d="M805.336,219.833l-4.367-4.273a11.438,11.438,0,0,0-2.769,5.055l5.93,1.511A5.322,5.322,0,0,1,805.336,219.833Z" transform="translate(-610.889 -165.131)" fill="#0b1d1e"/>
      <path id="Path_320" data-name="Path 320" d="M817.524,207.668l-1.511-5.927a11.447,11.447,0,0,0-5.242,3.051l4.376,4.268a5.325,5.325,0,0,1,2.377-1.392Z" transform="translate(-620.51 -154.546)" fill="#0b1d1e"/>
      <path id="Path_321" data-name="Path 321" d="M867.783,240.016a5.4,5.4,0,0,1-.183,1.37l5.93,1.511a11.555,11.555,0,0,0,.366-2.882,11.434,11.434,0,0,0-.336-2.736l-5.89,1.657A5.3,5.3,0,0,1,867.783,240.016Z" transform="translate(-664.004 -181.768)" fill="#0b1d1e"/>
      <path id="Path_322" data-name="Path 322" d="M851.94,266.771l1.509,5.928a11.457,11.457,0,0,0,5.038-2.9l-4.379-4.273A5.339,5.339,0,0,1,851.94,266.771Z" transform="translate(-652.019 -203.444)" fill="#0b1d1e"/>
      <path id="Path_323" data-name="Path 323" d="M855.01,209.43l4.266-4.374a11.437,11.437,0,0,0-4.677-2.816l-1.659,5.895A5.342,5.342,0,0,1,855.01,209.43Z" transform="translate(-652.784 -154.928)" fill="#0b1d1e"/>
      <path id="Path_324" data-name="Path 324" d="M862.56,219.5a5.333,5.333,0,0,1,1.187,2.213l5.89-1.657a11.456,11.456,0,0,0-2.816-4.928Z" transform="translate(-660.147 -164.802)" fill="#0b1d1e"/>
      <path id="Path_325" data-name="Path 325" d="M840.439,242.21a1.579,1.579,0,1,0,1.579,1.579A1.579,1.579,0,0,0,840.439,242.21Z" transform="translate(-642.008 -185.539)" fill="#989b9e"/>
      <path id="Path_326" data-name="Path 326" d="M839.529,241a1.858,1.858,0,1,0,1.859,1.858A1.858,1.858,0,0,0,839.529,241Zm0,3.438a1.579,1.579,0,1,1,1.579-1.579,1.579,1.579,0,0,1-1.579,1.579Z" transform="translate(-641.097 -184.613)" fill="#545759"/>
      <path id="Path_327" data-name="Path 327" d="M412.98,93.9l-11.555.066a2.482,2.482,0,0,0-.272.014c-1.3.134-1.051,1.258-.9,2.124,14.7.178,34.042.441,52.191.594a6.7,6.7,0,0,0-1.19-2.492l-.192-.19.106-.115Z" transform="translate(-306.231 -71.927)" fill="#434657"/>
      <path id="Path_328" data-name="Path 328" d="M88.664,27.954c8.03-.939,19.322-2.347,24.933-2.689,8.931-.558,20.552-1.068,22.9-1.173a1.877,1.877,0,0,1,.4-.425c2.541-1.905,8.345-1.929,8.589-1.929h.141v.2c1.593-.906,16.635-9.44,21.694-11.775,8.11-3.743,19.338-5.613,25.578-6.237.371-.038.774-.07,1.2-.1,5.191-.615,20-.516,20-.516h.284l-1.605,18.268.038-.038.206.188a6.87,6.87,0,0,1,1.509,3.112c25.672.214,48.762.2,52.646-.575,4.942-1,11.053-4.095,15.764-6.441h0l.1-.049-.39-.04s-2.5-.627-5.632-1.253-18.088-7.04-25.489-9.431c-4.433-1.429-18.327-6-34.3-6.859a195.5,195.5,0,0,0-26.2.624A85.573,85.573,0,0,0,169.2,5.8c-6.322,2.328-22.879,11.93-22.879,11.93a77.339,77.339,0,0,1-9.386,3.135c-3.133.627-9.426.237-22.52,1.88a258.421,258.421,0,0,0-25.7,5.024l-.6.145h0C88.3,27.9,88.464,27.977,88.664,27.954ZM218.63,3.315c1.408.143,12.158,1.267,20.415,3.1,11.228,2.5,26.824,8.734,27.455,9.982s-3.755,3.119-3.755,3.119c-2.494,1.248-7.486,1.877-17.466,2.494-7.69.469-26.542.612-28.516.624Z" transform="translate(-67.429 0.017)" fill="#434657"/>
      <path id="Path_329" data-name="Path 329" d="M318.321,96.34l.04-2.44H305.924v.282h-.141c-.056,0-5.789.021-8.213,1.783,1.715.042,9.663.235,20.706.373Z" transform="translate(-227.737 -71.927)" fill="#434657"/>
      <path id="Path_330" data-name="Path 330" d="M14.028,237.089V233.97L4.439,232.9a8.244,8.244,0,0,0,1.833,5.242l.387-.056Z" transform="translate(-3.392 -178.412)" fill="#595f72"/>
    </g>
  </g>
</svg>
