<svg xmlns="http://www.w3.org/2000/svg" width="42" height="38" viewBox="0 0 42 38">
  <g id="Group_177" data-name="Group 177" transform="translate(-78 -485)">
    <g id="noun_review_1966414" transform="translate(76.65 478.6)">
      <g id="Group_5" data-name="Group 5" transform="translate(1.35 6.4)">
        <path id="Path_1" data-name="Path 1" d="M44.3,28.476,40.591,11.461A6.546,6.546,0,0,0,34.229,6.4H12.714a6.509,6.509,0,0,0-6.362,5.061L2.6,28.476a6.3,6.3,0,0,0,1.281,5.41,6.5,6.5,0,0,0,5.081,2.4h7.555L20.357,42.7a3.475,3.475,0,0,0,3.048,1.7h0a3.569,3.569,0,0,0,3.048-1.7L30.3,36.285h7.555a6.5,6.5,0,0,0,5.081-2.4A6.345,6.345,0,0,0,44.3,28.476Zm-2.96,4.1A4.334,4.334,0,0,1,37.9,34.191H29.767a1.093,1.093,0,0,0-.928.524l-4.153,6.937a1.414,1.414,0,0,1-1.237.7h0a1.414,1.414,0,0,1-1.237-.7L18.06,34.715a1.079,1.079,0,0,0-.928-.524H9a4.539,4.539,0,0,1-3.446-1.614,4.386,4.386,0,0,1-.884-3.665L8.385,11.9a4.429,4.429,0,0,1,4.329-3.447H34.141A4.429,4.429,0,0,1,38.47,11.9l3.711,17.015A4.189,4.189,0,0,1,41.342,32.577Z" transform="translate(-2.437 -6.4)" fill="#1390f4"/>
        <path id="Path_2" data-name="Path 2" d="M46.194,25.816l-4.118-.582-1.88-3.8a1.92,1.92,0,0,0-3.4,0l-1.88,3.715-4.208.627a1.884,1.884,0,0,0-1.03,3.223l3,2.91-.716,4.208a1.88,1.88,0,0,0,2.731,1.97L38.4,36.157l3.76,1.97a2.038,2.038,0,0,0,.9.224,2.071,2.071,0,0,0,1.119-.358,1.916,1.916,0,0,0,.761-1.835l-.716-4.118,3.044-3a1.83,1.83,0,0,0,.492-1.925A1.94,1.94,0,0,0,46.194,25.816Zm-3.715,4.834a1.532,1.532,0,0,0-.448,1.432l.671,3.894L39.121,34.1a1.707,1.707,0,0,0-1.522,0l-3.492,1.835.671-3.984a1.652,1.652,0,0,0-.448-1.432l-2.82-2.731L35.5,27.2a1.573,1.573,0,0,0,1.209-.9l1.746-3.536L40.24,26.4a1.573,1.573,0,0,0,1.209.9l3.894.582Z" transform="translate(-17.438 -14.428)" fill="#1390f4"/>
      </g>
    </g>
  </g>
</svg>
