<svg xmlns="http://www.w3.org/2000/svg" width="244" height="110" viewBox="0 0 244 110">
  <g id="Layer_2" data-name="Layer 2" transform="translate(0 0.008)">
    <g id="Ñëîé_2" data-name="Ñëîé 2" transform="translate(0 -0.008)">
      <path id="Path_331" data-name="Path 331" d="M102.864,234.68c-15.544,0-24.4,11.138-24.4,26.585l4.064.376a20.357,20.357,0,1,1,40.255,3.945l4.968.455a2.54,2.54,0,0,1-.3-1.1C126.774,248.731,120.94,234.68,102.864,234.68Z" transform="translate(-58.532 -175.08)"/>
      <ellipse id="Ellipse_65" data-name="Ellipse 65" cx="122" cy="3.175" rx="122" ry="3.175" transform="translate(0 103.65)" fill="#a3a3a3"/>
      <path id="Path_332" data-name="Path 332" d="M487.169,3.588a44.419,44.419,0,0,1,9.1-1.245s48.774-.825,53.907-.825c3.843,0,4.049,2.2,3.9,3.256,6.37,0,8.636.417,11.557,1.1a19.274,19.274,0,0,0-4.252-4.14C558.345-.559,553.443.073,546.676.07s-43.654-.16-53.9.4a31.414,31.414,0,0,0-17.124,6.1c2.794-.33,5.667-.554,8.318-.716A8.7,8.7,0,0,1,487.169,3.588Z" transform="translate(-354.839 0.008)" fill="#1f282a"/>
      <path id="Path_333" data-name="Path 333" d="M723.6,228.18c-16.09.894-23.774,10.094-24.812,29.359l6.708-.168c-2-12.481,6.8-22.76,19.542-22.76,12.08,0,20.5,9.233,19.443,21.287l6.4-.165C750.64,255.332,749.952,226.715,723.6,228.18Z" transform="translate(-521.303 -170.19)"/>
      <path id="Path_334" data-name="Path 334" d="M267.256,52.894l-1.321-8.382s-1.732-9.7-7.739-15.707a37.373,37.373,0,0,0-15.862-9.515,26.439,26.439,0,0,0-3.076-.648c-.671-.1-3.492-.14-7.6-.145-16.926-.02-55.683.607-55.683.607s-6.35-.119-14.163.361c-2.652.163-5.471.4-8.275.726-5.783.681-11.483,1.778-15.438,3.533-8.316,3.691-29.793,25.633-29.793,25.633l-1.039,1.387s-33.606,1.039-47.463,6.929C46.6,63.282,43.469,72.66,43.5,79.518c1.085.424,1.778,1.778,2.2,3.243.544-1.646,1.394-4.036,2.471-6.456a2.859,2.859,0,0,1-2.22-.627c-3.116-3.116,2.426-8.661,7.97-11.778s12.123-5.2,13.164-1.039l192.145-1.633Z" transform="translate(-32.451 -13.798)" fill="#004550"/>
      <path id="Path_335" data-name="Path 335" d="M572.62,36.33l2.771,27.022-33.6.345-.348-27.02Z" transform="translate(-403.919 -27.101)" fill="#004550"/>
      <path id="Path_336" data-name="Path 336" d="M473.023,158.393a1.242,1.242,0,0,1-.1.5,3.132,3.132,0,0,1-2.86,2.332l-6.921.348a3.119,3.119,0,0,1-.312-6.228l6.921-.35a3.127,3.127,0,0,1,3.269,2.959v.213Z" transform="translate(-343.126 -115.623)" fill="#004550"/>
      <path id="Path_337" data-name="Path 337" d="M533.28,274.75l.254,10,37.931-.762c.079-.452.168-.935.272-1.453a32.393,32.393,0,0,1,2.7-7.6v-.983Z" transform="translate(-397.831 -204.375)" fill="#004550"/>
      <path id="Path_338" data-name="Path 338" d="M299.121,288.283l58.184-1.163-.254-10-59.592,1.156C298.034,281.839,298.613,285.306,299.121,288.283Z" transform="translate(-221.908 -206.74)" fill="#004550"/>
      <path id="Path_339" data-name="Path 339" d="M283.342,281.69l-4.4.086a41.577,41.577,0,0,1,2.337,10L285,291.7C284.49,288.718,283.913,285.254,283.342,281.69Z" transform="translate(-208.091 -210.149)" fill="#004550"/>
      <path id="Path_340" data-name="Path 340" d="M288.14,321.174c.16,1.448.234,2.72.254,3.731a2.54,2.54,0,0,0,2.581,2.461l1.946-.033c-.274-1.587-.648-3.741-1.069-6.233Z" transform="translate(-214.955 -239.55)" fill="#357892"/>
      <path id="Path_341" data-name="Path 341" d="M534.4,320.648l34.827-.6a2.54,2.54,0,0,0,2.494-2.459,27.413,27.413,0,0,1,.447-4.1l-37.931.762Z" transform="translate(-398.547 -233.865)" fill="#357892"/>
      <path id="Path_342" data-name="Path 342" d="M304,317.653c.424,2.5.8,4.653,1.072,6.235l57.273-.991-.16-6.408Z" transform="translate(-226.786 -236.111)" fill="#357892"/>
      <path id="Path_343" data-name="Path 343" d="M693.47,187.192c.145,1.887.254,3.584.338,5,.208,3.861.323,8.026.381,11.953l3.345-.13c4.4-5.842,11.28-11.094,21.411-11.47,15.12-.559,23,7.025,25.463,9.956a2.525,2.525,0,0,0,.833.648l-1.13-16.393Z" transform="translate(-517.334 -139.328)" fill="#357892"/>
      <path id="Path_344" data-name="Path 344" d="M572.78,205.437c-.058-3.927-.173-8.09-.381-11.95-.076-1.422-.193-3.124-.338-5.016l-40.931.348.45,18.206Z" transform="translate(-396.227 -140.604)" fill="#357892"/>
      <path id="Path_345" data-name="Path 345" d="M348.132,208.066l-.45-18.216-62.053.526c.084,3.439,1.257,11.712,2.563,20Z" transform="translate(-213.082 -141.634)" fill="#357892"/>
      <path id="Path_346" data-name="Path 346" d="M111.15,191.93l-37.614.32c.9,3.586-12.857,13.154-18.915,13.444-1.077,2.421-1.928,4.811-2.471,6.456a17.119,17.119,0,0,1,.47,2.149,4.117,4.117,0,0,0,2.753,3.276l.292.1c2.7-8.417,10.04-21.165,29.648-20.23,13,.617,19.776,7.389,23.3,14.693l5.1-.2C112.407,203.649,111.234,195.377,111.15,191.93Z" transform="translate(-38.904 -143.186)" fill="#357892"/>
      <path id="Path_347" data-name="Path 347" d="M279.54,270.72l-5.1.2q.64,1.33,1.143,2.675l4.4-.086Q279.761,272.119,279.54,270.72Z" transform="translate(-204.734 -201.964)" fill="#75989f"/>
      <path id="Path_348" data-name="Path 348" d="M696.343,259.6h.211a36.44,36.44,0,0,1,3.091-4.879l-3.345.13C696.323,256.485,696.338,258.093,696.343,259.6Z" transform="translate(-519.445 -190.028)" fill="#75989f"/>
      <path id="Path_349" data-name="Path 349" d="M533,260.815l41.147-.8c0-1.524-.023-3.111-.046-4.747l-41.2,1.587Z" transform="translate(-397.548 -190.438)" fill="#75989f"/>
      <path id="Path_350" data-name="Path 350" d="M296.157,266.675l59.592-1.156-.1-3.95-59.942,2.314Q295.933,265.283,296.157,266.675Z" transform="translate(-220.602 -195.138)" fill="#75989f"/>
      <path id="Path_351" data-name="Path 351" d="M375.2,57.316a14.224,14.224,0,0,0-3.777.627c1.2,1.473.533,5.5.361,6.716-.183,1.27-2.911.909-2.911.909s-3.274-.18-4,.729c-.556.7-.472,2.675-.4,3.556l38-1.224.348-25.983s-2.6-.2-6.241-.16C394.735,50.263,387.014,56.935,375.2,57.316Z" transform="translate(-271.857 -31.689)" fill="#5e7b7f"/>
      <path id="Path_352" data-name="Path 352" d="M575.391,63.352,572.62,36.33l-31.18.348.348,27.02Z" transform="translate(-403.919 -27.101)" fill="#5e7b7f"/>
      <path id="Path_353" data-name="Path 353" d="M738.569,61.611s-.1-.838-.356-2.189a14.933,14.933,0,0,0-8.534-4.394c-10.16-1.847-14.782,1.387-19.865-8.313A19.249,19.249,0,0,0,692.84,36.321L695.959,62.3Z" transform="translate(-516.864 -27.091)" fill="#5e7b7f"/>
      <path id="Path_354" data-name="Path 354" d="M895.082,150.127c-3.464,1.041-3.111,5.89-3.111,5.89l.221,3.218,1.13,16.393a2.5,2.5,0,0,0,1.486.231c2.446-.368,7.417-.889,10.518.366h.155s-.1-2.9-.358-7.127v1.237s-2.72.909-4.158.462c-1.847-.579-2.286-10.9-1.615-12.242.922-1.847,4.155-2.078,4.155-2.078.018.076.218.645.467,1.524a16.714,16.714,0,0,0-3.122-6.6A5.972,5.972,0,0,0,895.082,150.127Z" transform="translate(-665.409 -111.802)" fill="#423f3f"/>
      <path id="Path_355" data-name="Path 355" d="M71.631,186.35c-1.041-4.158-7.62-2.08-13.164,1.039S47.38,196.05,50.5,199.166a2.859,2.859,0,0,0,2.22.627C58.774,199.509,72.528,189.936,71.631,186.35Z" transform="translate(-36.999 -137.285)" fill="#d8e1fd"/>
      <path id="Path_356" data-name="Path 356" d="M471.75,159.665h-8.542a1.27,1.27,0,0,1-1.27-1.27v-.229a1.27,1.27,0,0,1,1.27-1.27h8.542a1.27,1.27,0,0,1,1.27,1.232v-.175a3.127,3.127,0,0,0-3.271-2.964l-6.921.348a3.119,3.119,0,0,0,.312,6.228l6.921-.348a3.132,3.132,0,0,0,2.855-2.329A1.27,1.27,0,0,1,471.75,159.665Z" transform="translate(-343.126 -115.623)" fill="#1f282a"/>
      <path id="Path_357" data-name="Path 357" d="M477.592,162.5H469.05a1.27,1.27,0,0,0-1.27,1.27V164a1.27,1.27,0,0,0,1.27,1.27h8.542a1.27,1.27,0,0,0,1.171-.777,1.242,1.242,0,0,0,.1-.5v-.267A1.27,1.27,0,0,0,477.592,162.5Z" transform="translate(-348.968 -121.229)" fill="#357892"/>
      <path id="Path_358" data-name="Path 358" d="M527.73,88.315l-.1-3.957-.45-18.206L526.142,24.04l-.3.008,1.041,42.1.45,18.219.1,3.95.246,10,.16,6.408.3-.005-.16-6.408Z" transform="translate(-392.281 -17.932)" fill="#151b26"/>
      <path id="Path_359" data-name="Path 359" d="M681.067,80.684c-.058-3.927-.173-8.092-.381-11.953-.076-1.42-.193-3.116-.338-5-1.148-14.965-4.132-42.163-4.168-42.467l-.3.033c.033.307,3.015,27.474,4.166,42.437.145,1.892.254,3.594.338,5.016.208,3.861.323,8.024.381,11.95.023,1.636.038,3.231.046,4.747v.983c.1-.2.2-.4.3-.6v-.394C681.1,83.93,681.089,82.322,681.067,80.684Z" transform="translate(-504.212 -15.858)" fill="#151b26"/>
      <path id="Path_360" data-name="Path 360" d="M287.75,184.771q-.226-1.392-.444-2.794c-1.306-8.293-2.479-16.565-2.563-20V161.6c0-7.091,4.381-9.542,4.425-9.568l-.142-.254c-.046.025-4.585,2.54-4.585,9.835v.373c.084,3.447,1.257,11.719,2.56,20.012q.221,1.4.444,2.794c.571,3.556,1.148,7.028,1.654,10.01.422,2.492.795,4.646,1.069,6.233h.307c-.274-1.582-.648-3.736-1.072-6.236C288.9,191.8,288.321,188.335,287.75,184.771Z" transform="translate(-212.195 -113.234)" fill="#151b26"/>
      <path id="Path_361" data-name="Path 361" d="M59.257,216.385c16.377.218,23.908,13.49,24.574,29.717a2.54,2.54,0,0,0,2.6,2.433L191.2,245.892a2.54,2.54,0,0,0,2.461-2.306.669.669,0,0,1,.013-.157c.224-7,2.672-26.943,23.217-28.084,23.113-1.283,26.293,20.319,26.639,23.512a2.629,2.629,0,0,1-.025.734l-.076.414a2.54,2.54,0,0,0,2.715,2.984c2.941-.277,7.023-1.252,8.509-4.432,2.426-5.2,5.2-13.858,1.732-16.977a5.209,5.209,0,0,0-1.542-.925c-3.1-1.255-8.072-.734-10.518-.366A2.555,2.555,0,0,1,242,219.41c-2.466-2.931-10.343-10.515-25.463-9.956-10.132.376-17.017,5.631-21.412,11.47a36.442,36.442,0,0,0-3.091,4.879c-.071.132-.14.254-.208.4-.1.2-.2.4-.3.6a32.4,32.4,0,0,0-2.7,7.6c-.1.508-.193,1-.272,1.453a27.413,27.413,0,0,0-.447,4.1,2.54,2.54,0,0,1-2.494,2.459l-34.832.607h-.3l-57.273.991H92.9l-1.946.033a2.54,2.54,0,0,1-2.581-2.461c-.028-1.016-.1-2.286-.254-3.731a41.576,41.576,0,0,0-2.337-10c-.335-.894-.716-1.778-1.143-2.675-3.52-7.3-10.3-14.076-23.3-14.693-19.616-.917-26.954,11.823-29.654,20.241l-.292-.1a4.117,4.117,0,0,1-2.756-3.279,17.119,17.119,0,0,0-.47-2.151c-.429-1.466-1.112-2.819-2.2-3.243a2.809,2.809,0,0,0-2.631.549c-5.2,3.464-3.116,14.551-1.732,20.787.815,3.665,4.861,5.057,8.059,5.588a4.125,4.125,0,0,0,4.722-3.345l.462-3.1.729-4.92C37.734,225.524,45.765,216.205,59.257,216.385Z" transform="translate(-14.925 -156.239)" fill="#1f282a"/>
      <path id="Path_362" data-name="Path 362" d="M314.842,69.735c-.089-2.131-.2-8.067,1.13-10.139,1.638-2.54,7.823-3.094,9.278-1.819a1.525,1.525,0,0,1,.185.2,14.223,14.223,0,0,1,3.79-.627c18.574-.6,21.368-14.13,21.368-14.826-4.844,0-11.328.584-15.933,2.24C326,47.877,302.79,70.4,302.79,70.4l11.963-.386Z" transform="translate(-225.884 -31.718)" fill="#8fa6ac"/>
      <path id="Path_363" data-name="Path 363" d="M709.814,45.911c5.08,9.7,9.7,6.467,19.865,8.313a15.013,15.013,0,0,1,8.534,4.394c-1.138-6.477-4.16-16.024-9.69-19.629-7.958-5.2-35.683-3.472-35.683-3.472A19.249,19.249,0,0,1,709.814,45.911Z" transform="translate(-516.864 -26.288)" fill="#8fa6ac"/>
      <path id="Path_364" data-name="Path 364" d="M920.207,177.973c-.673,1.344-.231,11.663,1.615,12.242,1.438.447,4.158-.462,4.158-.462v-1.237c-.015-1.288-.046-3.363-.1-5.115a26.145,26.145,0,0,0-1.034-5.987c-.254-.874-.45-1.443-.467-1.524C924.362,175.9,921.129,176.126,920.207,177.973Z" transform="translate(-686.26 -131.219)" fill="#dc1b15"/>
      <path id="Path_365" data-name="Path 365" d="M354.138,109.2c.729-.909,4-.729,4-.729s2.728.366,2.911-.909c.173-1.214.843-5.242-.361-6.716a1.527,1.527,0,0,0-.185-.2c-1.455-1.27-7.64-.729-9.278,1.819-1.333,2.073-1.219,8.008-1.13,10.139a1.79,1.79,0,0,0,.013.269c.015.32.028.508.028.508l3.637-.18s-.02-.17-.041-.442C353.666,111.876,353.592,109.9,354.138,109.2Z" transform="translate(-261.139 -74.596)" fill="#1f282a"/>
      <circle id="Ellipse_66" data-name="Ellipse 66" cx="20.594" cy="20.594" r="20.594" transform="translate(23.707 65.765) rotate(-0.23)" fill="#17191c"/>
      <path id="Path_366" data-name="Path 366" d="M133.509,278.276a23.84,23.84,0,0,0,4.531-6.629,20.6,20.6,0,0,0-38.17-.356,22.224,22.224,0,0,0,4.351,6.784,14.67,14.67,0,0,1,29.288.2Z" transform="translate(-74.504 -192.941)" fill="#303338"/>
      <path id="Path_367" data-name="Path 367" d="M131.347,281.28a14.787,14.787,0,0,0-14.706,13.462c-.038.432-.061.869-.061,1.311a14.769,14.769,0,1,0,29.538,0c0-.29,0-.579-.027-.864a14.79,14.79,0,0,0-14.744-13.909Z" transform="translate(-86.97 -209.846)" fill="#151b26"/>
      <path id="Path_368" data-name="Path 368" d="M132.2,282.47a14.478,14.478,0,1,0,14.478,14.478A14.478,14.478,0,0,0,132.2,282.47Zm0,26.923a12.463,12.463,0,1,1,0,.005Z" transform="translate(-87.82 -210.734)" fill="#838b96"/>
      <path id="Path_369" data-name="Path 369" d="M139.024,291.57a12.156,12.156,0,1,0,12.159,12.157,12.156,12.156,0,0,0-12.159-12.157Z" transform="translate(-94.646 -217.523)" fill="#a3b1c9"/>
      <path id="Path_370" data-name="Path 370" d="M159.459,319a5.2,5.2,0,1,0,5.194,5.2,5.2,5.2,0,0,0-5.194-5.2Z" transform="translate(-115.079 -237.983)" fill="#303a4f"/>
      <path id="Path_371" data-name="Path 371" d="M165.7,327.34a3.071,3.071,0,1,0,3.068,3.071A3.071,3.071,0,0,0,165.7,327.34Z" transform="translate(-121.323 -244.205)" fill="#838b96"/>
      <circle id="Ellipse_67" data-name="Ellipse 67" cx="20.594" cy="20.594" r="20.594" transform="translate(182.317 103.626) rotate(-87.65)" fill="#17191c"/>
      <path id="Path_372" data-name="Path 372" d="M760.929,268.916a23.84,23.84,0,0,0,4.531-6.629,20.6,20.6,0,0,0-38.17-.356,22.223,22.223,0,0,0,4.361,6.779,14.665,14.665,0,0,1,29.278.206Z" transform="translate(-542.564 -185.958)" fill="#303338"/>
      <path id="Path_373" data-name="Path 373" d="M758.767,271.9a14.788,14.788,0,0,0-14.706,13.462c-.038.432-.061.869-.061,1.311a14.769,14.769,0,1,0,29.538,0c0-.29,0-.579-.027-.866A14.787,14.787,0,0,0,758.767,271.9Z" transform="translate(-555.03 -202.849)" fill="#151b26"/>
      <path id="Path_374" data-name="Path 374" d="M759.618,273.09A14.478,14.478,0,1,0,774.1,287.568,14.478,14.478,0,0,0,759.618,273.09Zm0,26.923a12.461,12.461,0,1,1,12.461-12.46,12.461,12.461,0,0,1-12.461,12.46Z" transform="translate(-555.88 -203.736)" fill="#838b96"/>
      <path id="Path_375" data-name="Path 375" d="M766.421,282.18a12.159,12.159,0,1,0,12.156,12.158A12.159,12.159,0,0,0,766.421,282.18Z" transform="translate(-562.684 -210.518)" fill="#a3b1c9"/>
      <path id="Path_376" data-name="Path 376" d="M786.877,309.59a5.2,5.2,0,1,0,5.2,5.2A5.2,5.2,0,0,0,786.877,309.59Z" transform="translate(-583.14 -230.963)" fill="#303a4f"/>
      <path id="Path_377" data-name="Path 377" d="M793.121,318a3.068,3.068,0,1,0,2.172.9A3.071,3.071,0,0,0,793.121,318Z" transform="translate(-589.384 -237.237)" fill="#838b96"/>
    </g>
  </g>
</svg>
