<svg xmlns="http://www.w3.org/2000/svg" width="42" height="39" viewBox="0 0 42 39">
  <path id="Union_1" data-name="Union 1" d="M10.277,39a6.548,6.548,0,0,1-6.361-5.194L.16,16.343a6.592,6.592,0,0,1,1.281-5.552A6.44,6.44,0,0,1,6.522,8.328h7.555L17.92,1.746A3.457,3.457,0,0,1,20.968,0a3.551,3.551,0,0,1,3.049,1.746l3.844,6.582h7.554a6.437,6.437,0,0,1,5.08,2.463,6.638,6.638,0,0,1,1.37,5.552L38.154,33.806A6.585,6.585,0,0,1,31.792,39ZM3.121,12.135A4.587,4.587,0,0,0,2.237,15.9L5.948,33.358a4.455,4.455,0,0,0,4.329,3.537H31.7a4.456,4.456,0,0,0,4.33-3.537L39.744,15.9a4.384,4.384,0,0,0-.839-3.761,4.29,4.29,0,0,0-3.446-1.657H27.33A1.087,1.087,0,0,1,26.4,9.94L22.25,2.821a1.427,1.427,0,0,0-2.474,0L15.623,9.94a1.075,1.075,0,0,1-.928.538H6.566A4.489,4.489,0,0,0,3.121,12.135ZM22.821,28.2a2.536,2.536,0,0,1-3.331,0,2.651,2.651,0,0,1-1.69.623,2.587,2.587,0,0,1-1.906-.855l-3.451-3.716-.013-.013-.229-.256-.024-.037a4.227,4.227,0,0,1,3.21-6.93,4.249,4.249,0,0,1,1.678.355,4.03,4.03,0,0,1,1.665-.355,3.5,3.5,0,0,1,.748.086h.013l.169.024.061.013a6.192,6.192,0,0,1,.676.232,4.306,4.306,0,0,1,1.689-.355,4.022,4.022,0,0,1,2.425.807,4.022,4.022,0,0,1,2.425-.807,4.207,4.207,0,0,1,4.175,4.242,4.134,4.134,0,0,1-.965,2.689l-.024.05-.241.256h-.012c-.012.024-.036.048-.048.048l-3.4,3.668a2.575,2.575,0,0,1-3.6.232ZM19.708,21.26a2.394,2.394,0,0,0,.519,1.479c0,.012,0,.012.012.012l.024.037.194.208,2.98,3.215.024.024a.724.724,0,0,1,.121.147l.326.342a.761.761,0,0,0,.591.268.821.821,0,0,0,.6-.281l3.451-3.7.2-.22.036-.048a2.409,2.409,0,0,0-1.859-3.887,2.3,2.3,0,0,0-1.738.795.177.177,0,0,1-.048.037c-.012.024-.024.024-.036.037a.535.535,0,0,1-.132.1.394.394,0,0,1-.145.074.318.318,0,0,1-.133.037.518.518,0,0,1-.193.025.458.458,0,0,1-.181-.025,1.066,1.066,0,0,1-.18-.049.9.9,0,0,1-.229-.147l-.085-.086a2.324,2.324,0,0,0-1.75-.795A2.413,2.413,0,0,0,19.708,21.26Zm-3.342-.013a2.373,2.373,0,0,0,.543,1.528l.2.22,3,3.239.036.037h.012l.41.465a.747.747,0,0,0,.579.256.764.764,0,0,0,.41-.122l-2.293-2.494a.463.463,0,0,1-.133-.134h-.012l-.229-.257-.036-.037A4.248,4.248,0,0,1,17.9,21.26a4.163,4.163,0,0,1,.737-2.4,2.267,2.267,0,0,0-1.111.33h-.013A2.428,2.428,0,0,0,16.365,21.247Zm-3.354,0a2.491,2.491,0,0,0,.531,1.5l.024.024.194.22.012.012,3.439,3.717a.779.779,0,0,0,.591.268.771.771,0,0,0,.422-.122L15.8,24.255,15.557,24l-.036-.05a4.236,4.236,0,0,1-.965-2.7,4.175,4.175,0,0,1,.748-2.4A2.4,2.4,0,0,0,13.011,21.247Z" fill="#1390f4"/>
</svg>
