<svg xmlns="http://www.w3.org/2000/svg" width="36" height="37" viewBox="0 0 36 37">
  <g id="Group_179" data-name="Group 179" transform="translate(-78 -617)">
    <g id="trust" transform="translate(46.975 617)">
      <path id="Path_4" data-name="Path 4" d="M49.025,0c-4.793,2.357-11.274,4.337-16.8,4.337h-1.2V5.421c0,9.137,2.086,18.83,8.695,25.691A21.77,21.77,0,0,0,49.025,37a21.722,21.722,0,0,0,9.305-5.888c6.613-6.867,8.695-16.565,8.695-25.691V4.337h-1.2c-5.471,0-11.936-1.945-16.8-4.337ZM56.63,29.574a20.116,20.116,0,0,1-7.605,5.148,20.117,20.117,0,0,1-7.606-5.148c-3.547-3.734-7.757-10.747-7.985-23.1a45.1,45.1,0,0,0,15.59-4.017,45.1,45.1,0,0,0,15.59,4.017C64.387,18.826,60.178,25.84,56.63,29.574Z" transform="translate(0)" fill="#1390f4"/>
      <g id="Group_178" data-name="Group 178">
        <path id="Path_6" data-name="Path 6" d="M186.979,186.761l-1.561,1.561,4.1,4.1,6.3-6.382-1.571-1.55-4.738,4.8Z" transform="translate(-141.587 -171.219)" fill="#1390f4"/>
      </g>
    </g>
  </g>
</svg>
