<svg id="Ñëîé_2" data-name="Ñëîé 2" xmlns="http://www.w3.org/2000/svg" width="244" height="90" viewBox="0 0 244 90">
  <ellipse id="Ellipse_68" data-name="Ellipse 68" cx="122" cy="3.175" rx="122" ry="3.175" transform="translate(0 83.65)" fill="#a3a3a3"/>
  <path id="Path_378" data-name="Path 378" d="M620.214,42.864h14.9V56.275h1.039V42.844c3.182-.015,11.707.226,14.165,3.147,2.57,3.048,3.614,8.511,3.894,10.279.056.351.081.559.084.571l.9-.109c0-.041-.025-.206-.063-.462-.254-1.687-1.3-7.505-4.12-10.861-3.312-3.937-15.585-3.462-16.088-3.462H604.05v.907h15.125V56.27h1.039Z" transform="translate(-450.626 -31.28)" fill="#6d7b8c"/>
  <path id="Path_379" data-name="Path 379" d="M233.314,252.821l-3.754.056.16.378a8.636,8.636,0,0,0,8.079,5.235l102.5-1.869a8.407,8.407,0,0,0,7.729-5.471h0l-68.9,1v.036h-.3v-.033l-45.211.66Z" transform="translate(-171.254 -187.463)"/>
  <path id="Path_380" data-name="Path 380" d="M696,198.313h4.671a18.478,18.478,0,0,1,35.462,0h2.476s-.693-13.858-7.62-16.283-21.477-2.423-27.713,1.039c-2.388,1.328-4.481,6.35-5.8,10.282Z" transform="translate(-519.222 -134.609)" fill="#070a0b"/>
  <path id="Path_381" data-name="Path 381" d="M97.083,196.88c-1.928-4.392-5.032-10.726-7.66-12.7-4.158-3.116-20.032-2.553-25.867,0-5.542,2.426-8.636,21.31-8.636,21.31l2.54-.241V204.8a18.475,18.475,0,0,1,36.7-3.015l4.762-.442Z" transform="translate(-40.971 -135.903)" fill="#070a0b"/>
  <path id="Path_382" data-name="Path 382" d="M227.94,150.449c.254,1.463.587,3.122.914,4.78l48.119-3.419c0-5.588.028-11.508.132-15.3-19.024.348-37,.521-50.265.838a88.614,88.614,0,0,0,1.1,13.1Z" transform="translate(-169.224 -101.903)" fill="#ff2727"/>
  <path id="Path_383" data-name="Path 383" d="M472.3,135.828c-.043-.732-.117-1.626-.206-2.588-15.748.254-32.072.544-47.456.825-.1,3.779-.13,9.69-.13,15.283l47.751-3.421C472.347,141.289,472.385,137.184,472.3,135.828Z" transform="translate(-316.688 -99.46)" fill="#ff2727"/>
  <path id="Path_384" data-name="Path 384" d="M239.728,228.243l46.166-.848c0-.958,0-2.032-.013-3.175-23.233.493-44.273.894-46.811.942C239.306,226.257,239.522,227.3,239.728,228.243Z" transform="translate(-178.348 -167.359)" fill="#ff2727"/>
  <path id="Path_385" data-name="Path 385" d="M693.456,132.079c0-1.25-.2-2.873.429-3.889-11.554.173-44.827.673-81.2,1.27.089.958.16,1.847.206,2.575.086,1.359.046,5.461-.041,10.094L623.1,141.4s9.182-1.212,11.087.348-.693,8.313-3.81,9.007c-.747.168-7.66.414-17.729.691-.031,1.234-.058,2.393-.086,3.426l22.674-.417c1.321-3.924,3.414-8.953,5.8-10.282,6.233-3.454,20.784-3.454,27.711-1.041s7.62,16.283,7.62,16.283l9.355.345s1.039-9.352,3.465-10.045a26.082,26.082,0,0,1,9.007-.444v-5.885s-1.72.1-2.578.1-.955-1.237-.955-2.474-.287-2.99,1.145-3.4a7.907,7.907,0,0,1,2.388-.361v-1.877s-2.3.145-3.457.145S693.456,133.8,693.456,132.079Z" transform="translate(-456.975 -95.705)" fill="#ff2727"/>
  <path id="Path_386" data-name="Path 386" d="M232.8,102.548a23.765,23.765,0,0,1-.617-3.358,12.939,12.939,0,0,0-2,3.376Z" transform="translate(-171.716 -74.036)" fill="#ff2727"/>
  <path id="Path_387" data-name="Path 387" d="M692.774,99.66a4.66,4.66,0,0,1,2.309,2.078c.051.089.1.18.142.274a7.386,7.386,0,0,0-4.3-3.622H659.059c.038.254.061.422.064.462l-.9.109s-.028-.221-.084-.571H609.32c.015.122.127,1.064.277,2.405C652.394,100.224,692.774,99.66,692.774,99.66Z" transform="translate(-454.558 -73.439)" fill="#ff2727"/>
  <path id="Path_388" data-name="Path 388" d="M472.092,219.8c-12.855.353-30.746.762-47.532,1.115,0,1.148,0,2.22.013,3.177l47.433-.871C472.031,222.19,472.062,221.032,472.092,219.8Z" transform="translate(-316.725 -164.06)" fill="#ff2727"/>
  <path id="Path_389" data-name="Path 389" d="M468.881,31.819s0-13.164-2.311-18.244a16.233,16.233,0,0,0-3-4.427C453.469,9.1,435.245,9.013,429.1,9c-.472,5.428-1.648,18.889-2.261,25.707,14.5-.183,30.565-.394,46.323-.6-.157-1.4-.274-2.365-.277-2.39l.15-.018h0v-.1Zm-5.509-2.286a1.41,1.41,0,0,1-1.392,1.392l-6.975.1-1.979.03-19.245.287a1.4,1.4,0,0,1-1.425-1.372l-.4-17.117A1.618,1.618,0,0,1,433.52,11.2c5.334-.193,22.428-.577,26.118,2.144,3.563,2.619,3.779,12.519,3.734,16.179Z" transform="translate(-318.426 -6.714)" fill="#ff2727"/>
  <path id="Path_390" data-name="Path 390" d="M299.183,9h-.025c-8.14,0-18.879.345-25.115,3.116-3.419,1.524-10.8,7.406-16.786,12.42a3.175,3.175,0,0,1,1.016,1.7c5.265-4.353,12.4-9.873,16.786-11.742,6.1-2.583,15.722-2.794,19.344-2.794a1.232,1.232,0,0,1,1.212,1.43l-.973,5.979a.872.872,0,0,1,.056.46l-1.819,11.915a.808.808,0,0,1-.762.706l-23.558.282a.787.787,0,0,1-.762-.607L256.119,32a4.4,4.4,0,0,1-1.092.409,4.8,4.8,0,0,0-1.069.358c-1.059.528-.9,1.869-.762,2.469,9.347-.089,25.239-.279,43.732-.508C297.532,27.925,298.708,14.463,299.183,9Z" transform="translate(-188.811 -6.714)" fill="#ff2727"/>
  <path id="Path_391" data-name="Path 391" d="M27.732,153.214c5.842-2.553,21.709-3.117,25.867,0,2.629,1.974,5.733,8.308,7.66,12.7l4.958-.089c-.762-3.556-1.8-8.5-2.456-12.293a86.458,86.458,0,0,1-1.135-12.992c-11.508.274-19.72.526-22.735.726-6.5.432-12.786.973-18.1,1.476a5.679,5.679,0,0,1-1.8,3.3c-1.539,1.626-4.353,3.3-9.032,3.96-2.939.422-3.825.312-4.064.175.229,3.884.81,7.3.81,7.3l.02.046a11.631,11.631,0,0,1,3.337-.531,42.532,42.532,0,0,1,7.053.13L16.188,174.27l2.931.254S22.19,155.642,27.732,153.214Z" transform="translate(-5.147 -104.929)" fill="#ff2727"/>
  <path id="Path_392" data-name="Path 392" d="M262.8,18.273c5.982-5.014,13.368-10.9,16.786-12.42,6.236-2.771,16.974-3.127,25.115-3.127h.025c.089-1.034.155-1.778.185-2.136a155.17,155.17,0,0,0-19.692,1.618c-9.847,1.676-18.313,9.118-24.693,15.275A3.155,3.155,0,0,1,262.8,18.273Z" transform="translate(-194.357 -0.44)" fill="#ff7ba1"/>
  <path id="Path_393" data-name="Path 393" d="M69.021,94.979l.015-.051A10.467,10.467,0,0,1,70,92.977l.414-1.062.886-.785a13.62,13.62,0,0,1-.013-2.111,16.385,16.385,0,0,1-3.876,2.9c-5.545,2.426-40.639.348-48.965,5.545a20.021,20.021,0,0,0-3.868,3.52H14.6C16.754,100,29.337,95.2,69.021,94.979Z" transform="translate(-10.877 -66.449)" fill="#ff7ba1"/>
  <path id="Path_394" data-name="Path 394" d="M470.212,2.434A17.65,17.65,0,0,0,468.317.7c-6.563-.536-19.865-.925-32.389-.549-.03.343-.1,1.095-.188,2.146C441.884,2.3,460.108,2.386,470.212,2.434Z" transform="translate(-325.066 -0.001)" fill="#ff7ba1"/>
  <path id="Path_395" data-name="Path 395" d="M7.066,205.1a11.631,11.631,0,0,0-3.337.531c-2.032.78-2.951,2.794-1.389,8.5a10.809,10.809,0,0,0,9.827,8.415l.02-.17,1.925-17.147a42.531,42.531,0,0,0-7.046-.13Z" transform="translate(-1.158 -153.036)" fill="#282f39"/>
  <path id="Path_396" data-name="Path 396" d="M495.019,231.61l-22.674.417c-.071,2.735-.127,4.6-.127,4.666h-.3c0-.066.053-1.925.127-4.653l-47.433.864c.015,2.621.028,4.4.03,4.673l68.9-1Z" transform="translate(-316.762 -172.877)" fill="#af1010"/>
  <path id="Path_397" data-name="Path 397" d="M242.655,242.054l45.211-.66c0-.254-.015-2.032-.03-4.673l-46.166.848C242.2,240.035,242.6,241.815,242.655,242.054Z" transform="translate(-180.288 -176.69)" fill="#af1010"/>
  <path id="Path_398" data-name="Path 398" d="M222.764,244.676h.351l3.754-.056c-.091-.4-.483-2.134-.991-4.48l-4.958.089Z" transform="translate(-164.808 -179.242)" fill="#af1010"/>
  <path id="Path_399" data-name="Path 399" d="M634.431,179.241c-1.9-1.56-11.087-.348-11.087-.348l-10.249.734c-.056,3.086-.132,6.406-.206,9.311,10.068-.277,16.982-.523,17.729-.691C633.745,187.554,636.336,180.8,634.431,179.241Z" transform="translate(-457.221 -133.197)" fill="#cf2a24"/>
  <path id="Path_400" data-name="Path 400" d="M236.369,204.669c2.54-.048,23.578-.45,46.811-.942,0-2.126-.013-4.519-.013-6.977l-47.717,3.419C235.75,201.685,236.065,203.222,236.369,204.669Z" transform="translate(-175.648 -146.859)" fill="#cf2a24"/>
  <path id="Path_401" data-name="Path 401" d="M472.26,183.19l-47.75,3.421c0,2.464,0,4.864.013,6.992,16.786-.358,34.678-.762,47.532-1.115C472.131,189.586,472.2,186.271,472.26,183.19Z" transform="translate(-316.688 -136.74)" fill="#cf2a24"/>
  <path id="Path_402" data-name="Path 402" d="M904.074,211.051c-2.426.693-3.464,10.045-3.464,10.045s9.355-1.039,11.778-2.078,3.81-6.929,2.08-7.968a4.271,4.271,0,0,0-1.387-.444A25.586,25.586,0,0,0,904.074,211.051Z" transform="translate(-671.862 -157.041)" fill="#282f39"/>
  <path id="Path_403" data-name="Path 403" d="M19.02,118.215c1.6.036,4.064,1.306,3.878,3.614,5.311-.508,11.592-1.044,18.1-1.476,3.015-.2,11.226-.452,22.735-.726A25.055,25.055,0,0,1,64.4,112.5c-39.684.221-52.266,5.019-54.425,6H9.937c-.224.1-.328.16-.328.16,0-.043-.089.109-.236.353-.2.335-.493.848-.711,1.306-.084.173-.155.335-.208.48-.025.069-.051.15-.074.236C9.137,120.658,14.323,118.1,19.02,118.215Z" transform="translate(-6.252 -83.974)" fill="#ff5a81"/>
  <path id="Path_404" data-name="Path 404" d="M471.805,107.87c-15.747.211-31.828.422-46.323.6-.132,1.481-.239,2.649-.307,3.353s-.114,1.831-.155,3.3c15.384-.282,31.706-.564,47.456-.825C472.278,112.157,472,109.661,471.805,107.87Zm-11.016,4.351h-6.7a1.039,1.039,0,0,1,0-2.078h6.7a1.039,1.039,0,0,1,0,2.078Z" transform="translate(-317.068 -80.516)" fill="#ff5a81"/>
  <path id="Path_405" data-name="Path 405" d="M228.184,110.882a24.6,24.6,0,0,0-.65,7.069c13.261-.317,30.832-.668,49.856-1.016.041-1.5.091-2.662.157-3.345s.173-1.857.3-3.32c-18.493.234-34.385.424-43.732.508a2.622,2.622,0,0,0,.079.3l-3.236.231s-.053-.185-.137-.508l-2.621.018Zm36.778,1.737h6.7a1.039,1.039,0,1,1,0,2.078h-6.7a1.039,1.039,0,0,1,0-2.078Z" transform="translate(-169.74 -82.308)" fill="#ff5a81"/>
  <path id="Path_406" data-name="Path 406" d="M696.226,106.1v-.03c-.031-.084-.063-.163-.1-.254-.015-.036-.033-.071-.048-.109-.046-.094-.091-.185-.142-.274a4.661,4.661,0,0,0-2.309-2.078s-40.385.564-83.177,1.135c.2,1.793.475,4.29.671,6.441,36.374-.6,69.647-1.1,81.2-1.27a1.872,1.872,0,0,1,1.107-.836,10.368,10.368,0,0,1,3.2-.508h0A7.278,7.278,0,0,0,696.226,106.1Z" transform="translate(-455.401 -77.143)" fill="#ff5a81"/>
  <path id="Path_407" data-name="Path 407" d="M231.184,138.135c-.053-.239-.455-2.032-.988-4.486-.206-.942-.427-1.986-.658-3.081-.3-1.448-.62-2.984-.919-4.5-.328-1.659-.638-3.3-.889-4.755a86.541,86.541,0,0,1-1.12-12.954,24.6,24.6,0,0,1,.65-7.069l.02-.051a12.939,12.939,0,0,1,2-3.376c-.015-.147-.028-.295-.041-.444a17.831,17.831,0,0,0-1.3,1.819,10.466,10.466,0,0,0-.965,1.951l-.015.051a25.054,25.054,0,0,0-.665,7.127,86.458,86.458,0,0,0,1.135,12.992c.655,3.795,1.689,8.737,2.456,12.293.508,2.347.9,4.082.991,4.48Z" transform="translate(-168.816 -72.743)" fill="#682929"/>
  <path id="Path_408" data-name="Path 408" d="M608.414,100.723c.2,1.778.472,4.287.67,6.444.089.963.163,1.857.206,2.588.086,1.356.046,5.461-.041,10.1-.056,3.081-.132,6.4-.206,9.3-.03,1.232-.061,2.39-.086,3.421-.074,2.728-.127,4.587-.127,4.653h.3c0-.066.056-1.93.127-4.666.028-1.034.056-2.192.086-3.426.074-2.906.15-6.225.206-9.311.086-4.633.127-8.735.041-10.094-.046-.729-.117-1.618-.206-2.575-.2-2.151-.467-4.648-.671-6.441-.15-1.341-.254-2.286-.277-2.405V98.29l-.15.018-.15.018C608.14,98.359,608.257,99.326,608.414,100.723Z" transform="translate(-453.677 -73.391)" fill="#682929"/>
  <path id="Path_409" data-name="Path 409" d="M276.9,38.9c3.081-2.832,9.8-8.826,13.495-10.495,3.906-1.765,10.081-1.918,12.4-1.91a.787.787,0,0,1,.721.508l.973-5.979a1.232,1.232,0,0,0-1.212-1.43c-3.622-.013-13.253.211-19.344,2.794-4.386,1.88-11.521,7.4-16.791,11.762a3.152,3.152,0,0,1,.081.7v1.389a4.153,4.153,0,0,1-2.23,3.66l11.666-.14A.853.853,0,0,1,276.9,38.9Z" transform="translate(-197.692 -14.621)" fill="#8fa6ac"/>
  <path id="Path_410" data-name="Path 410" d="M474.684,19.4c-3.691-2.72-20.782-2.337-26.118-2.144A1.618,1.618,0,0,0,447,18.918l.394,17.106a1.4,1.4,0,0,0,1.425,1.372l19.245-.287-12.006.178c1.344-2.509,3.886-8.191.688-10.322-2.5-1.666.508-6.335,3.3-9.8a66.145,66.145,0,0,1,11.463,1.046c-1.305,2.69-1.968,5.3-.452,6.439,2.761,2.07.368,9.032-1.016,12.425l6.975-.1a1.41,1.41,0,0,0,1.392-1.392C478.455,31.923,478.239,22.022,474.684,19.4Z" transform="translate(-333.464 -12.774)" fill="#6d7b8c"/>
  <path id="Path_411" data-name="Path 411" d="M336.963,46.77c-2.322,0-8.5.145-12.4,1.91-3.691,1.669-10.414,7.663-13.495,10.495a.853.853,0,0,0-.239.869.787.787,0,0,0,.762.607l23.558-.282a.808.808,0,0,0,.762-.706l1.819-11.915a.871.871,0,0,0-.056-.46.787.787,0,0,0-.709-.518Z" transform="translate(-231.853 -34.891)" fill="#6d7b8c"/>
  <path id="Path_412" data-name="Path 412" d="M565.895,4.485a16.235,16.235,0,0,1,3,4.425c2.311,5.08,2.311,18.244,2.311,18.244l4.153-.211c-.089-2.464-.384-10.6-.688-13.065-.32-2.54-1.524-8.615-6.027-10.381-.805-.312-1.575-.508-4.641-.747a17.524,17.524,0,0,1,1.895,1.735Z" transform="translate(-420.749 -2.052)" fill="#282f39"/>
  <path id="Path_413" data-name="Path 413" d="M426.358.608c-.03.348-.1,1.11-.185,2.126-.475,5.453-1.651,18.915-2.261,25.712-.132,1.463-.239,2.621-.3,3.32s-.117,1.849-.157,3.345c-.1,3.792-.13,9.708-.13,15.3,0,2.459,0,4.851.013,6.977,0,1.148,0,2.217.013,3.175.015,2.631.028,4.414.031,4.673v.033h.3v-.036c0-.269-.015-2.052-.03-4.673,0-.958,0-2.032-.013-3.177,0-2.128-.013-4.529-.013-6.992,0-5.588.028-11.5.13-15.283.041-1.481.091-2.634.155-3.3s.175-1.872.307-3.353c.612-6.817,1.778-20.279,2.261-25.707.091-1.052.157-1.8.188-2.146Z" transform="translate(-315.8 -0.448)" fill="#682929"/>
  <path id="Path_414" data-name="Path 414" d="M9.64,145.886c4.679-.668,7.493-2.334,9.032-3.96a5.751,5.751,0,0,0,1.8-3.3c.2-2.309-2.286-3.579-3.878-3.614-4.7-.107-9.883,2.448-10.64,2.835l-.1.051c-1.384,3.475-.368,8-.368,8s-.074.094.079.175C5.814,146.2,6.7,146.308,9.64,145.886Z" transform="translate(-3.823 -100.775)" fill="#d8e1fd"/>
  <path id="Path_415" data-name="Path 415" d="M237.745,74.793v.028c.013.15.025.3.041.444a23.767,23.767,0,0,0,.617,3.358c.084.317.137.508.137.508l3.236-.231a2.623,2.623,0,0,1-.079-.3c-.132-.6-.29-1.94.762-2.469a4.8,4.8,0,0,1,1.069-.358,4.4,4.4,0,0,0,1.092-.409,4.153,4.153,0,0,0,2.228-3.66V70.307a3.185,3.185,0,0,0-3.365-3.183,3.1,3.1,0,0,0-1.041.254,15.065,15.065,0,0,0-3.216,1.824,4.734,4.734,0,0,0-1.5,3.487A13.62,13.62,0,0,0,237.745,74.793Z" transform="translate(-177.32 -50.101)" fill="#282f39"/>
  <path id="Path_416" data-name="Path 416" d="M935.708,122.93a10.368,10.368,0,0,0-3.2.508,1.872,1.872,0,0,0-1.107.836c-.63,1.016-.429,2.639-.429,3.889,0,1.717.127,3.437,1.27,3.437s3.457-.145,3.457-.145v-8.521Z" transform="translate(-694.489 -91.758)" fill="#fcc556"/>
  <path id="Path_417" data-name="Path 417" d="M936.876,164.211c-1.432.411-1.145,2.164-1.145,3.4s.1,2.474.955,2.474,2.578-.1,2.578-.1V163.85a7.908,7.908,0,0,0-2.388.361Z" transform="translate(-698.045 -122.3)" fill="#fb4918"/>
  <path id="Path_418" data-name="Path 418" d="M496.965,24.785c-1.524-1.135-.853-3.749.452-6.439A66.146,66.146,0,0,0,485.954,17.3c-2.794,3.462-5.806,8.128-3.3,9.8,3.2,2.131.66,7.813-.693,10.322l12.006-.178,1.979-.03C497.333,33.817,499.726,26.855,496.965,24.785Z" transform="translate(-359.365 -12.906)" fill="#8fa6ac"/>
  <path id="Path_419" data-name="Path 419" d="M93.5,233.093a18.46,18.46,0,0,0,8.44-15.509,18.694,18.694,0,0,0-.254-3.015A18.475,18.475,0,0,0,65,217.584v.452a18.47,18.47,0,0,0,28.5,15.057Zm-22.285-8.087h0l-.3-.523h0a14.244,14.244,0,0,1-1.76-6.6h0v-.6h0a14.223,14.223,0,0,1,1.76-6.6h0l.3-.523h0a14.391,14.391,0,0,1,4.826-4.826h0l.526-.3h0a14.246,14.246,0,0,1,6.6-1.763h.6a14.257,14.257,0,0,1,6.6,1.763h0l.523.3h0a14.437,14.437,0,0,1,4.826,4.826h0l.3.523h0a14.239,14.239,0,0,1,1.763,6.6h0v.6h0a14.247,14.247,0,0,1-1.763,6.6h0l-.3.523h0a14.406,14.406,0,0,1-4.826,4.826h0l-.541.3h0a14.256,14.256,0,0,1-6.6,1.763h-.6a14.247,14.247,0,0,1-6.6-1.763h0l-.526-.3h0A14.361,14.361,0,0,1,71.218,225.006Z" transform="translate(-48.491 -148.732)" fill="#282f39"/>
  <path id="Path_420" data-name="Path 420" d="M103.326,235.567l-3.393-5.877a12.547,12.547,0,0,0-4.153,4.143l5.88,3.393A5.756,5.756,0,0,1,103.326,235.567Z" transform="translate(-71.453 -171.445)" fill="#282f39"/>
  <path id="Path_421" data-name="Path 421" d="M90.114,248.09a12.4,12.4,0,0,0-1.524,5.672h6.784a5.631,5.631,0,0,1,.61-2.286Z" transform="translate(-66.089 -185.177)" fill="#282f39"/>
  <path id="Path_422" data-name="Path 422" d="M119.859,222.54a12.387,12.387,0,0,0-5.669,1.524l3.393,5.88a5.641,5.641,0,0,1,2.286-.61Z" transform="translate(-85.187 -166.108)" fill="#282f39"/>
  <path id="Path_423" data-name="Path 423" d="M151.586,237.211l5.877-3.4a12.517,12.517,0,0,0-4.15-4.15l-3.393,5.88a5.745,5.745,0,0,1,1.666,1.671Z" transform="translate(-111.842 -171.423)" fill="#282f39"/>
  <path id="Path_424" data-name="Path 424" d="M165.024,253.762a12.428,12.428,0,0,0-1.524-5.672l-5.88,3.4a5.669,5.669,0,0,1,.607,2.286Z" transform="translate(-117.586 -185.177)" fill="#282f39"/>
  <path id="Path_425" data-name="Path 425" d="M138.86,298.934a12.4,12.4,0,0,0,5.672-1.524l-3.4-5.88a5.621,5.621,0,0,1-2.286.61Z" transform="translate(-103.583 -217.618)" fill="#282f39"/>
  <path id="Path_426" data-name="Path 426" d="M103.326,285.486a5.722,5.722,0,0,1-1.666-1.666l-5.88,3.4a12.572,12.572,0,0,0,4.153,4.15Z" transform="translate(-71.453 -211.866)" fill="#282f39"/>
  <path id="Path_427" data-name="Path 427" d="M114.19,297.472A12.388,12.388,0,0,0,119.859,299V292.21a5.641,5.641,0,0,1-2.286-.61Z" transform="translate(-85.187 -217.67)" fill="#282f39"/>
  <path id="Path_428" data-name="Path 428" d="M88.63,272.77a12.405,12.405,0,0,0,1.524,5.672l5.88-3.4a5.641,5.641,0,0,1-.61-2.286Z" transform="translate(-66.119 -203.591)" fill="#282f39"/>
  <path id="Path_429" data-name="Path 429" d="M144.562,224.024a12.4,12.4,0,0,0-5.672-1.524v6.784a5.621,5.621,0,0,1,2.286.61Z" transform="translate(-103.613 -166.079)" fill="#282f39"/>
  <path id="Path_430" data-name="Path 430" d="M163.55,278.472a12.446,12.446,0,0,0,1.524-5.672h-6.8a5.682,5.682,0,0,1-.607,2.286Z" transform="translate(-117.623 -203.621)" fill="#282f39"/>
  <path id="Path_431" data-name="Path 431" d="M149.92,285.486l3.393,5.88a12.542,12.542,0,0,0,4.15-4.15l-5.877-3.4A5.755,5.755,0,0,1,149.92,285.486Z" transform="translate(-111.842 -211.866)" fill="#282f39"/>
  <path id="Path_432" data-name="Path 432" d="M88.248,241.785l.526.3h0a14.246,14.246,0,0,0,6.6,1.763h.6a14.257,14.257,0,0,0,6.6-1.763h0l.523-.3h0a14.406,14.406,0,0,0,4.826-4.826h0l.3-.523h0a14.246,14.246,0,0,0,1.763-6.6h0v-.6h0a14.239,14.239,0,0,0-1.763-6.6h0l-.3-.523h0a14.437,14.437,0,0,0-4.826-4.826h0l-.523-.3h0a14.257,14.257,0,0,0-6.6-1.763h-.6a14.247,14.247,0,0,0-6.6,1.763h0l-.526.3h0a14.391,14.391,0,0,0-4.826,4.826h0l-.3.523h0a14.224,14.224,0,0,0-1.76,6.6h0v.6h0a14.244,14.244,0,0,0,1.76,6.6h0l.3.523h0a14.361,14.361,0,0,0,4.826,4.826Zm-3.226-5.753,5.88-3.4a5.585,5.585,0,0,1-.3-.523l-5.88,3.4a12.4,12.4,0,0,1-1.524-5.672H89.98c0-.1-.015-.2-.015-.3a2.009,2.009,0,0,1,.015-.3H83.207a12.4,12.4,0,0,1,1.524-5.672l5.88,3.4a5.991,5.991,0,0,1,.3-.526l-5.89-3.4a12.547,12.547,0,0,1,4.153-4.15l3.393,5.877a5.592,5.592,0,0,1,.523-.3L89.7,218.586a12.387,12.387,0,0,1,5.669-1.524v6.784c.1,0,.2-.015.3-.015a1.993,1.993,0,0,1,.3.015v-6.774a12.4,12.4,0,0,1,5.672,1.524l-3.4,5.88a5.407,5.407,0,0,1,.526.3l3.393-5.88a12.517,12.517,0,0,1,4.15,4.132l-5.877,3.393c.109.17.208.345.3.526l5.88-3.4a12.428,12.428,0,0,1,1.524,5.672h-6.8c0,.1.015.2.015.3a2.007,2.007,0,0,1-.015.3h6.784a12.445,12.445,0,0,1-1.524,5.672l-5.88-3.4c-.094.18-.193.356-.3.523l5.877,3.4a12.542,12.542,0,0,1-4.15,4.15l-3.393-5.88a5.412,5.412,0,0,1-.526.3l3.4,5.88A12.4,12.4,0,0,1,95.959,242v-6.779c-.1,0-.2.015-.3.015a2.01,2.01,0,0,1-.3-.015v6.784a12.387,12.387,0,0,1-5.669-1.524l3.393-5.88a5.085,5.085,0,0,1-.523-.3l-3.393,5.88A12.573,12.573,0,0,1,85.023,236.032Z" transform="translate(-60.695 -160.683)" fill="#6d7b8c"/>
  <path id="Path_433" data-name="Path 433" d="M121.862,261.165a5.392,5.392,0,1,0-5.392-5.392,5.392,5.392,0,0,0,5.392,5.392Zm0-7.993a2.6,2.6,0,1,1-1.84.761,2.6,2.6,0,0,1,1.84-.761Z" transform="translate(-86.888 -186.893)" fill="#6d7b8c"/>
  <path id="Path_434" data-name="Path 434" d="M117.873,259.592a5.082,5.082,0,0,0,.523.3,5.642,5.642,0,0,0,2.286.61c.1,0,.2.015.3.015a1.994,1.994,0,0,0,.3-.015,5.621,5.621,0,0,0,2.286-.61,5.415,5.415,0,0,0,.526-.3,5.756,5.756,0,0,0,1.666-1.666c.109-.168.208-.343.3-.523a5.682,5.682,0,0,0,.607-2.286c0-.1.015-.2.015-.3a2.009,2.009,0,0,0-.015-.3,5.669,5.669,0,0,0-.607-2.286c-.094-.18-.193-.356-.3-.526a5.745,5.745,0,0,0-1.666-1.664,5.4,5.4,0,0,0-.526-.3,5.62,5.62,0,0,0-2.286-.61c-.1,0-.2-.015-.3-.015a2.008,2.008,0,0,0-.3.015,5.752,5.752,0,0,0-2.809.909,5.755,5.755,0,0,0-1.666,1.666,5.99,5.99,0,0,0-.3.526,5.631,5.631,0,0,0-.61,2.286c0,.1-.015.2-.015.3a2.009,2.009,0,0,0,.015.3,5.754,5.754,0,0,0,2.578,4.475Zm-2.286-4.767a5.428,5.428,0,1,1-.005,0Z" transform="translate(-86 -185.946)" fill="#0b1723"/>
  <path id="Path_435" data-name="Path 435" d="M130.061,266.572a2.6,2.6,0,1,0-2.6-2.6A2.6,2.6,0,0,0,130.061,266.572Z" transform="translate(-95.086 -195.089)" fill="#8fa6ac"/>
  <path id="Path_436" data-name="Path 436" d="M729.957,198.86a18.47,18.47,0,1,0,17.724,13.281,18.471,18.471,0,0,0-17.724-13.281Zm14.32,18.176v.6h0a14.223,14.223,0,0,1-1.76,6.6h0l-.3.523h0a14.376,14.376,0,0,1-4.826,4.826h0l-.533.29h0a14.247,14.247,0,0,1-6.6,1.763h-.6a14.239,14.239,0,0,1-6.6-1.763h0l-.508-.295h0a14.406,14.406,0,0,1-4.826-4.826h0l-.3-.523h0a14.247,14.247,0,0,1-1.763-6.6h0v-.6h0a14.238,14.238,0,0,1,1.763-6.6h0l.3-.523h0a14.436,14.436,0,0,1,4.826-4.826h0l.523-.3h0a14.239,14.239,0,0,1,6.6-1.763h.6a14.246,14.246,0,0,1,6.6,1.763h0l.523.3h0a14.407,14.407,0,0,1,4.826,4.826h0l.3.523h0a14.2,14.2,0,0,1,1.76,6.6Z" transform="translate(-530.772 -148.485)" fill="#282f39"/>
  <path id="Path_437" data-name="Path 437" d="M810.06,248.09l-5.88,3.4a5.631,5.631,0,0,1,.61,2.286h6.784A12.4,12.4,0,0,0,810.06,248.09Z" transform="translate(-599.925 -185.177)" fill="#282f39"/>
  <path id="Path_438" data-name="Path 438" d="M791.079,224.024a12.387,12.387,0,0,0-5.669-1.524v6.784a5.641,5.641,0,0,1,2.286.61Z" transform="translate(-585.922 -166.078)" fill="#282f39"/>
  <path id="Path_439" data-name="Path 439" d="M749.844,235.567l-3.393-5.877a12.516,12.516,0,0,0-4.15,4.143l5.878,3.393A5.786,5.786,0,0,1,749.844,235.567Z" transform="translate(-553.762 -171.445)" fill="#282f39"/>
  <path id="Path_440" data-name="Path 440" d="M748.177,283.82l-5.878,3.4a12.542,12.542,0,0,0,4.15,4.15l3.393-5.88A5.754,5.754,0,0,1,748.177,283.82Z" transform="translate(-553.762 -211.866)" fill="#282f39"/>
  <path id="Path_441" data-name="Path 441" d="M796.43,285.486l3.393,5.88a12.55,12.55,0,0,0,4.153-4.15l-5.877-3.4A5.722,5.722,0,0,1,796.43,285.486Z" transform="translate(-594.143 -211.866)" fill="#282f39"/>
  <path id="Path_442" data-name="Path 442" d="M798.1,237.211l5.877-3.4a12.523,12.523,0,0,0-4.153-4.15l-3.393,5.88A5.715,5.715,0,0,1,798.1,237.211Z" transform="translate(-594.143 -171.423)" fill="#282f39"/>
  <path id="Path_443" data-name="Path 443" d="M766.342,222.54a12.4,12.4,0,0,0-5.672,1.524l3.4,5.88a5.631,5.631,0,0,1,2.286-.61Z" transform="translate(-567.466 -166.108)" fill="#282f39"/>
  <path id="Path_444" data-name="Path 444" d="M735.15,272.77a12.405,12.405,0,0,0,1.524,5.672l5.877-3.4a5.68,5.68,0,0,1-.607-2.286Z" transform="translate(-548.428 -203.591)" fill="#282f39"/>
  <path id="Path_445" data-name="Path 445" d="M736.634,248.09a12.4,12.4,0,0,0-1.524,5.672h6.784a5.631,5.631,0,0,1,.61-2.286Z" transform="translate(-548.398 -185.177)" fill="#282f39"/>
  <path id="Path_446" data-name="Path 446" d="M785.38,298.934a12.388,12.388,0,0,0,5.669-1.524l-3.393-5.88a5.641,5.641,0,0,1-2.286.61Z" transform="translate(-585.892 -217.618)" fill="#282f39"/>
  <path id="Path_447" data-name="Path 447" d="M810.06,278.472a12.405,12.405,0,0,0,1.524-5.672H804.79a5.641,5.641,0,0,1-.61,2.286Z" transform="translate(-599.925 -203.621)" fill="#282f39"/>
  <path id="Path_448" data-name="Path 448" d="M760.7,297.472A12.4,12.4,0,0,0,766.372,299V292.21a5.631,5.631,0,0,1-2.286-.61Z" transform="translate(-567.488 -217.67)" fill="#282f39"/>
  <path id="Path_449" data-name="Path 449" d="M754.735,222.674l-.3-.523h0a14.406,14.406,0,0,0-4.826-4.826h0l-.523-.3h0a14.247,14.247,0,0,0-6.6-1.763h-.607a14.238,14.238,0,0,0-6.6,1.763h0l-.508.3h0a14.436,14.436,0,0,0-4.826,4.826h0l-.3.523h0a14.239,14.239,0,0,0-1.763,6.6h0v.6h0a14.247,14.247,0,0,0,1.763,6.6h0l.3.523h0a14.406,14.406,0,0,0,4.826,4.826h0l.523.3h0a14.238,14.238,0,0,0,6.589,1.76h.6a14.247,14.247,0,0,0,6.6-1.763h0l.523-.3h0A14.376,14.376,0,0,0,754.43,237h0l.3-.523h0a14.223,14.223,0,0,0,1.76-6.6h0v-.6h0a14.206,14.206,0,0,0-1.76-6.6Zm-6.858,6.9a2.014,2.014,0,0,1-.015.3h6.784a12.4,12.4,0,0,1-1.524,5.672l-5.88-3.4a5.083,5.083,0,0,1-.3.523l5.88,3.4a12.549,12.549,0,0,1-4.153,4.15l-3.393-5.88a5.063,5.063,0,0,1-.523.3l3.393,5.88a12.387,12.387,0,0,1-5.669,1.524v-6.787c-.1,0-.2.015-.3.015a1.994,1.994,0,0,1-.3-.015v6.784a12.4,12.4,0,0,1-5.672-1.524l3.4-5.88a5.405,5.405,0,0,1-.526-.3l-3.393,5.88a12.541,12.541,0,0,1-4.15-4.15l5.877-3.4c-.109-.168-.208-.343-.3-.523l-5.877,3.4a12.4,12.4,0,0,1-1.524-5.672h6.784c0-.1-.015-.2-.015-.3a2.014,2.014,0,0,1,.015-.3h-6.764a12.4,12.4,0,0,1,1.524-5.672l5.88,3.4a5.972,5.972,0,0,1,.3-.526l-5.888-3.4a12.516,12.516,0,0,1,4.15-4.15l3.393,5.885a5.971,5.971,0,0,1,.526-.3l-3.4-5.88a12.4,12.4,0,0,1,5.672-1.524v6.784c.1,0,.2-.015.3-.015a2.007,2.007,0,0,1,.3.015v-6.774a12.387,12.387,0,0,1,5.669,1.524l-3.393,5.88a5.086,5.086,0,0,1,.523.3l3.393-5.88a12.524,12.524,0,0,1,4.153,4.132l-5.877,3.4a6,6,0,0,1,.3.526l5.88-3.4a12.4,12.4,0,0,1,1.524,5.672h-6.8C747.867,229.372,747.877,229.471,747.877,229.572Z" transform="translate(-542.997 -160.72)" fill="#6d7b8c"/>
  <path id="Path_450" data-name="Path 450" d="M768.382,250.38a5.392,5.392,0,1,0,5.392,5.392A5.392,5.392,0,0,0,768.382,250.38Zm0,7.993a2.6,2.6,0,1,1,2.6-2.6A2.6,2.6,0,0,1,768.382,258.373Z" transform="translate(-569.197 -186.893)" fill="#6d7b8c"/>
  <path id="Path_451" data-name="Path 451" d="M772.212,251.781a5.715,5.715,0,0,0-1.666-1.664,5.064,5.064,0,0,0-.523-.3,5.641,5.641,0,0,0-2.286-.61c-.1,0-.2-.015-.3-.015a1.992,1.992,0,0,0-.3.015,5.631,5.631,0,0,0-2.286.61,5.967,5.967,0,0,0-.526.3,5.786,5.786,0,0,0-1.666,1.666,5.945,5.945,0,0,0-.3.526,5.629,5.629,0,0,0-.61,2.286c0,.1-.015.2-.015.3a2.006,2.006,0,0,0,.015.3,5.68,5.68,0,0,0,.607,2.286c.094.18.193.356.3.523a5.757,5.757,0,0,0,1.666,1.666,5.414,5.414,0,0,0,.526.3,5.631,5.631,0,0,0,2.286.61c.1,0,.2.015.3.015a2.01,2.01,0,0,0,.3-.015,5.641,5.641,0,0,0,2.286-.61,5.072,5.072,0,0,0,.523-.3,5.722,5.722,0,0,0,1.666-1.666,5.079,5.079,0,0,0,.3-.523,5.642,5.642,0,0,0,.61-2.286c0-.1.015-.2.015-.3a2.006,2.006,0,0,0-.015-.3,5.631,5.631,0,0,0-.61-2.286A6,6,0,0,0,772.212,251.781Zm-4.767,8.5a5.392,5.392,0,1,1,5.392-5.392,5.392,5.392,0,0,1-5.392,5.392Z" transform="translate(-568.257 -186.006)" fill="#0b1723"/>
  <circle id="Ellipse_69" data-name="Ellipse 69" cx="2.601" cy="2.601" r="2.601" transform="matrix(1, -0.026, 0.026, 1, 196.52, 66.338)" fill="#8fa6ac"/>
  <path id="Path_452" data-name="Path 452" d="M371.849,121.6h6.7a1.039,1.039,0,1,0,0-2.078h-6.7a1.039,1.039,0,0,0,0,2.078Z" transform="translate(-276.627 -89.209)" fill="#af1010"/>
  <path id="Path_453" data-name="Path 453" d="M543.127,116.79h-6.7a1.039,1.039,0,1,0,0,2.078h6.7a1.039,1.039,0,0,0,0-2.078Z" transform="translate(-399.405 -87.172)" fill="#af1010"/>
</svg>
