<svg xmlns="http://www.w3.org/2000/svg" width="244" height="94" viewBox="0 0 244 94">
  <g id="Layer_2" data-name="Layer 2" transform="translate(0.035 -0.001)">
    <g id="Ñëîé_2" data-name="Ñëîé 2" transform="translate(-0.035 0.001)">
      <ellipse id="Ellipse_62" data-name="Ellipse 62" cx="121.737" cy="3.888" rx="121.737" ry="3.888" transform="translate(0.527 86.225)" fill="#a3a3a3"/>
      <path id="Path_197" data-name="Path 197" d="M765.887,215.224c-16.175-.693-20.72,12.405-22,19.82h.038l-.537,4.929,5.231-.075a17.353,17.353,0,1,1,34.525-2.5,17.722,17.722,0,0,1-.12,2.012l5.358-.078A43.665,43.665,0,0,0,787.205,232C785.238,225.13,779.974,215.83,765.887,215.224Z" transform="translate(-568.226 -164.591)" fill="#11090d"/>
      <path id="Path_198" data-name="Path 198" d="M135.091,221.189a17.349,17.349,0,0,1,16.371,23.1l6.376-.283-.323-5.033h.153c-.829-7.893-4.866-22.278-23.291-22.278-10.2.29-15.834,4.873-18.955,10.3l.1-.021c-.1.118-.2.247-.3.384a24.755,24.755,0,0,0-1.232,2.592c-1.96,5.8-2.106,16.09-2.106,16.09l7.413-.328a17.351,17.351,0,0,1,15.786-24.53Z" transform="translate(-85.511 -165.776)" fill="#11090d"/>
      <path id="Path_199" data-name="Path 199" d="M164.378,267.225a17.334,17.334,0,1,0-10.235,3.346,17.334,17.334,0,0,0,10.235-3.346Zm-21.743-7.033-.28-.485h0a13.345,13.345,0,0,1-1.649-6.2h0v-.29h0v-.278h0a13.362,13.362,0,0,1,1.649-6.2h0l.28-.485h0a13.513,13.513,0,0,1,4.54-4.538h0l.485-.28h0a13.384,13.384,0,0,1,6.2-1.649h.561a13.381,13.381,0,0,1,6.2,1.649h0l.488.28h0a13.527,13.527,0,0,1,4.538,4.538h0l.28.485h0a13.43,13.43,0,0,1,1.649,6.2h0v.278h0v.278h0a13.4,13.4,0,0,1-1.649,6.2h0l-.28.5h0a13.548,13.548,0,0,1-4.529,4.531h0l-.488.283h0a13.41,13.41,0,0,1-6.2,1.649h-.57a13.411,13.411,0,0,1-6.2-1.649h0l-.485-.283h0A13.534,13.534,0,0,1,142.635,260.192Z" transform="translate(-104.563 -180.451)" fill="#282f39"/>
      <path id="Path_200" data-name="Path 200" d="M159.83,277.32h0l.485.283h0a13.411,13.411,0,0,0,6.2,1.649h.561a13.409,13.409,0,0,0,6.2-1.649h0l.488-.283h0a13.548,13.548,0,0,0,4.538-4.531h0l.28-.485h0a13.4,13.4,0,0,0,1.649-6.2h0v-.278h0v-.278h0a13.43,13.43,0,0,0-1.649-6.2h0l-.28-.485h0a13.526,13.526,0,0,0-4.529-4.552h0l-.488-.28h0a13.381,13.381,0,0,0-6.2-1.649h-.57a13.383,13.383,0,0,0-6.2,1.649h0l-.485.28h0a13.512,13.512,0,0,0-4.54,4.538h0l-.28.485h0a13.362,13.362,0,0,0-1.649,6.2h0v.278h0v.28h0a13.346,13.346,0,0,0,1.649,6.2h0l.28.485h0A13.534,13.534,0,0,0,159.83,277.32Zm2.208-9.083-5.523,3.19a11.654,11.654,0,0,1-1.425-5.332h6.376c0-.094-.014-.186-.014-.28a1.851,1.851,0,0,1,.014-.28h-6.376a11.637,11.637,0,0,1,1.425-5.332l5.523,3.188a4.715,4.715,0,0,1,.28-.485l-5.523-3.19a11.745,11.745,0,0,1,3.9-3.89l3.181,5.511a5.178,5.178,0,0,1,.485-.28l-3.19-5.523a11.684,11.684,0,0,1,5.334-1.426v6.376c.092,0,.184-.014.28-.014a1.845,1.845,0,0,1,.28.014v-6.376a11.682,11.682,0,0,1,5.332,1.425l-3.181,5.523a5.546,5.546,0,0,1,.488.28l3.188-5.511a11.781,11.781,0,0,1,3.9,3.9l-5.523,3.178c.1.156.193.318.28.485l5.516-3.188a11.635,11.635,0,0,1,1.414,5.332h-6.362c0,.092.014.186.014.28a1.864,1.864,0,0,1-.014.28h6.362a11.652,11.652,0,0,1-1.414,5.332l-5.525-3.19a5.546,5.546,0,0,1-.278.488l5.523,3.188a11.8,11.8,0,0,1-3.9,3.9l-3.188-5.523c-.158.1-.32.193-.488.28l3.2,5.513a11.651,11.651,0,0,1-5.332,1.414V271.14c-.094,0-.186.014-.28.014a1.845,1.845,0,0,1-.28-.014v6.373a11.653,11.653,0,0,1-5.334-1.414l3.19-5.525c-.167-.087-.33-.179-.485-.28l-3.19,5.523a11.781,11.781,0,0,1-3.9-3.9l5.523-3.188A5.019,5.019,0,0,1,162.038,268.237Z" transform="translate(-117.217 -193.049)" fill="#6d7b8c"/>
      <path id="Path_201" data-name="Path 201" d="M211.58,336.546a11.651,11.651,0,0,0,5.332-1.414l-3.19-5.532a5.287,5.287,0,0,1-2.142.573Z" transform="translate(-161.72 -252.074)" fill="#282f39"/>
      <path id="Path_202" data-name="Path 202" d="M186.56,335.091a11.653,11.653,0,0,0,5.334,1.414v-6.362a5.3,5.3,0,0,1-2.144-.573Z" transform="translate(-142.595 -252.051)" fill="#282f39"/>
      <path id="Path_203" data-name="Path 203" d="M175.023,272.511,171.842,267a11.745,11.745,0,0,0-3.9,3.9l5.523,3.19A5.356,5.356,0,0,1,175.023,272.511Z" transform="translate(-128.362 -204.187)" fill="#282f39"/>
      <path id="Path_204" data-name="Path 204" d="M171.811,328.842l3.181-5.523a5.383,5.383,0,0,1-1.569-1.569l-5.523,3.188A11.78,11.78,0,0,0,171.811,328.842Z" transform="translate(-128.331 -246.074)" fill="#282f39"/>
      <path id="Path_205" data-name="Path 205" d="M236.083,315.922a11.651,11.651,0,0,0,1.414-5.332h-6.362a5.252,5.252,0,0,1-.575,2.142Z" transform="translate(-176.228 -237.52)" fill="#282f39"/>
      <path id="Path_206" data-name="Path 206" d="M224.309,274.08l5.523-3.19a11.781,11.781,0,0,0-3.9-3.89l-3.188,5.523A5.419,5.419,0,0,1,224.309,274.08Z" transform="translate(-170.25 -204.187)" fill="#282f39"/>
      <path id="Path_207" data-name="Path 207" d="M222.74,323.319l3.188,5.523a11.8,11.8,0,0,0,3.9-3.9l-5.523-3.188a5.44,5.44,0,0,1-1.569,1.569Z" transform="translate(-170.25 -246.074)" fill="#282f39"/>
      <path id="Path_208" data-name="Path 208" d="M237.567,290.912a11.635,11.635,0,0,0-1.414-5.332l-5.523,3.188a5.308,5.308,0,0,1,.573,2.144Z" transform="translate(-176.281 -218.394)" fill="#282f39"/>
      <path id="Path_209" data-name="Path 209" d="M162.125,285.58a11.637,11.637,0,0,0-1.426,5.332h6.376a5.308,5.308,0,0,1,.573-2.144Z" transform="translate(-122.828 -218.394)" fill="#282f39"/>
      <path id="Path_210" data-name="Path 210" d="M160.7,310.59a11.654,11.654,0,0,0,1.426,5.332l5.523-3.19a5.288,5.288,0,0,1-.573-2.142Z" transform="translate(-122.828 -237.52)" fill="#282f39"/>
      <path id="Path_211" data-name="Path 211" d="M191.894,259.71a11.684,11.684,0,0,0-5.334,1.426l3.19,5.523a5.3,5.3,0,0,1,2.144-.573Z" transform="translate(-142.595 -198.612)" fill="#282f39"/>
      <path id="Path_212" data-name="Path 212" d="M216.912,261.135a11.682,11.682,0,0,0-5.332-1.425v6.376a5.287,5.287,0,0,1,2.142.573Z" transform="translate(-161.72 -198.612)" fill="#282f39"/>
      <path id="Path_213" data-name="Path 213" d="M193.956,298.032a5.066,5.066,0,1,0-5.066-5.066A5.066,5.066,0,0,0,193.956,298.032Zm0-7.509a1.013,1.013,0,1,1,0-.007Z" transform="translate(-144.376 -220.174)" fill="#6d7b8c"/>
      <path id="Path_214" data-name="Path 214" d="M190.1,296.535c.156.1.318.193.485.28a5.3,5.3,0,0,0,2.144.573c.092,0,.184.014.28.014a1.849,1.849,0,0,0,.28-.014,5.287,5.287,0,0,0,2.142-.573c.167-.087.33-.179.488-.28a5.44,5.44,0,0,0,1.569-1.569,5.537,5.537,0,0,0,.278-.488,5.251,5.251,0,0,0,.575-2.142c0-.094.014-.186.014-.28a1.849,1.849,0,0,0-.014-.28,5.308,5.308,0,0,0-.573-2.144c-.087-.167-.179-.33-.28-.485a5.419,5.419,0,0,0-1.569-1.569,5.557,5.557,0,0,0-.488-.28,5.286,5.286,0,0,0-2.142-.573c-.094,0-.186-.014-.28-.014a1.845,1.845,0,0,0-.28.014,5.3,5.3,0,0,0-2.144.573,5.174,5.174,0,0,0-.485.28,5.355,5.355,0,0,0-1.569,1.569,4.706,4.706,0,0,0-.28.485,5.309,5.309,0,0,0-.573,2.144c0,.092-.014.186-.014.28a1.865,1.865,0,0,0,.014.28,5.287,5.287,0,0,0,.573,2.142,5.011,5.011,0,0,0,.28.488A5.383,5.383,0,0,0,190.1,296.535Zm-2.156-4.477a4.177,4.177,0,1,0,.009,0Z" transform="translate(-143.436 -219.265)" fill="#0b1723"/>
      <circle id="Ellipse_63" data-name="Ellipse 63" cx="2.443" cy="2.443" r="2.443" transform="translate(47.137 70.351)" fill="#8fa6ac"/>
      <path id="Path_215" data-name="Path 215" d="M782.179,235.75a17.351,17.351,0,1,0,17.233,19.365,17.735,17.735,0,0,0,.12-2.012A17.353,17.353,0,0,0,782.179,235.75Zm13.449,17.356v.278h0a13.4,13.4,0,0,1-1.649,6.2h0l-.295.495h0a13.526,13.526,0,0,1-4.547,4.531h0l-.485.283h0a13.409,13.409,0,0,1-6.2,1.649h-.561a13.43,13.43,0,0,1-6.2-1.649h0l-.485-.283h0a13.5,13.5,0,0,1-4.531-4.531h0l-.28-.485h0a13.346,13.346,0,0,1-1.649-6.2h0v-.29h0v-.28h0a13.391,13.391,0,0,1,1.649-6.2h0l.28-.485h0a13.484,13.484,0,0,1,4.538-4.538h0l.485-.28h0a13.39,13.39,0,0,1,6.2-1.649h.561a13.381,13.381,0,0,1,6.2,1.649h0l.485.28h0a13.506,13.506,0,0,1,4.538,4.538h0l.28.485h0a13.43,13.43,0,0,1,1.649,6.2h0v.278h0Z" transform="translate(-584.612 -180.337)" fill="#282f39"/>
      <path id="Path_216" data-name="Path 216" d="M808.357,265.527h0a13.43,13.43,0,0,0-1.649-6.2h0l-.28-.485h0a13.507,13.507,0,0,0-4.562-4.538h0l-.471-.283h0a13.381,13.381,0,0,0-6.2-1.649h-.561a13.391,13.391,0,0,0-6.2,1.649h0l-.485.28h0a13.484,13.484,0,0,0-4.538,4.538h0l-.28.485h0a13.39,13.39,0,0,0-1.649,6.2h0v.28h0v.28h0a13.345,13.345,0,0,0,1.649,6.2h0l.28.485h0a13.505,13.505,0,0,0,4.538,4.538h0l.485.283h0a13.431,13.431,0,0,0,6.2,1.649h.561a13.409,13.409,0,0,0,6.2-1.649h0l.485-.283h0a13.527,13.527,0,0,0,4.533-4.526h0l.28-.485h0a13.4,13.4,0,0,0,1.649-6.2h0v-.278h0Zm-8.1.28a1.845,1.845,0,0,1-.014.28H806.6a11.651,11.651,0,0,1-1.414,5.332l-5.523-3.19c-.087.167-.179.33-.28.488l5.523,3.188a11.8,11.8,0,0,1-3.9,3.9l-3.188-5.523c-.158.1-.32.193-.488.28l3.193,5.513a11.651,11.651,0,0,1-5.332,1.414v-6.362c-.094,0-.186.014-.28.014a1.849,1.849,0,0,1-.28-.014v6.373a11.635,11.635,0,0,1-5.332-1.414l3.188-5.523c-.167-.087-.33-.179-.485-.28l-3.19,5.523a11.78,11.78,0,0,1-3.907-3.907l5.523-3.188a5.559,5.559,0,0,1-.28-.488l-5.523,3.19a11.652,11.652,0,0,1-1.425-5.332h6.376c0-.094-.014-.186-.014-.28a1.861,1.861,0,0,1,.014-.28H783.2a11.667,11.667,0,0,1,1.426-5.332l5.523,3.188a5.2,5.2,0,0,1,.28-.485l-5.528-3.19a11.745,11.745,0,0,1,3.907-3.89L792,261.34a5.188,5.188,0,0,1,.485-.28l-3.188-5.523a11.668,11.668,0,0,1,5.332-1.426v6.376c.092,0,.186-.014.28-.014a1.858,1.858,0,0,1,.28.014V254.1a11.682,11.682,0,0,1,5.332,1.425l-3.19,5.523a5.538,5.538,0,0,1,.488.28l3.188-5.511a11.782,11.782,0,0,1,3.9,3.9l-5.523,3.19c.1.155.193.318.28.485l5.523-3.188a11.633,11.633,0,0,1,1.414,5.332h-6.362C800.245,265.619,800.254,265.713,800.254,265.807Z" transform="translate(-597.341 -193.041)" fill="#6d7b8c"/>
      <path id="Path_217" data-name="Path 217" d="M839.66,336.546a11.651,11.651,0,0,0,5.332-1.414L841.8,329.6a5.287,5.287,0,0,1-2.142.573Z" transform="translate(-641.813 -252.074)" fill="#282f39"/>
      <path id="Path_218" data-name="Path 218" d="M814.65,335.09a11.635,11.635,0,0,0,5.332,1.414v-6.362a5.309,5.309,0,0,1-2.144-.573Z" transform="translate(-622.695 -252.051)" fill="#282f39"/>
      <path id="Path_219" data-name="Path 219" d="M864.2,315.922a11.653,11.653,0,0,0,1.414-5.332h-6.362a5.287,5.287,0,0,1-.573,2.142Z" transform="translate(-656.351 -237.52)" fill="#282f39"/>
      <path id="Path_220" data-name="Path 220" d="M801.528,321.75,796,324.938a11.781,11.781,0,0,0,3.9,3.9l3.19-5.523A5.382,5.382,0,0,1,801.528,321.75Z" transform="translate(-608.44 -246.074)" fill="#282f39"/>
      <path id="Path_221" data-name="Path 221" d="M850.82,323.319l3.188,5.523a11.805,11.805,0,0,0,3.9-3.9l-5.523-3.188A5.44,5.44,0,0,1,850.82,323.319Z" transform="translate(-650.343 -246.074)" fill="#282f39"/>
      <path id="Path_222" data-name="Path 222" d="M788.78,310.59a11.654,11.654,0,0,0,1.426,5.332l5.523-3.19a5.287,5.287,0,0,1-.573-2.142Z" transform="translate(-602.921 -237.52)" fill="#282f39"/>
      <path id="Path_223" data-name="Path 223" d="M852.389,274.08l5.523-3.19a11.783,11.783,0,0,0-3.9-3.89l-3.188,5.523A5.383,5.383,0,0,1,852.389,274.08Z" transform="translate(-650.343 -204.187)" fill="#282f39"/>
      <path id="Path_224" data-name="Path 224" d="M790.205,285.58a11.669,11.669,0,0,0-1.425,5.332h6.376a5.308,5.308,0,0,1,.573-2.144Z" transform="translate(-602.921 -218.394)" fill="#282f39"/>
      <path id="Path_225" data-name="Path 225" d="M844.992,261.135a11.682,11.682,0,0,0-5.332-1.426v6.376a5.287,5.287,0,0,1,2.142.573Z" transform="translate(-641.813 -198.612)" fill="#282f39"/>
      <path id="Path_226" data-name="Path 226" d="M819.982,259.71a11.668,11.668,0,0,0-5.332,1.426l3.188,5.523a5.308,5.308,0,0,1,2.144-.573Z" transform="translate(-622.695 -198.612)" fill="#282f39"/>
      <path id="Path_227" data-name="Path 227" d="M803.1,272.511,799.907,267A11.745,11.745,0,0,0,796,270.89l5.523,3.19A5.357,5.357,0,0,1,803.1,272.511Z" transform="translate(-608.44 -204.187)" fill="#282f39"/>
      <path id="Path_228" data-name="Path 228" d="M864.193,285.58l-5.523,3.188a5.306,5.306,0,0,1,.573,2.144H865.6A11.634,11.634,0,0,0,864.193,285.58Z" transform="translate(-656.343 -218.394)" fill="#282f39"/>
      <path id="Path_229" data-name="Path 229" d="M822.059,287.9a5.066,5.066,0,1,0,5.073,5.066A5.066,5.066,0,0,0,822.059,287.9Zm0,7.509a2.443,2.443,0,1,1,2.441-2.443A2.444,2.444,0,0,1,822.059,295.409Z" transform="translate(-624.492 -220.174)" fill="#6d7b8c"/>
      <path id="Path_230" data-name="Path 230" d="M825.605,289.146a5.385,5.385,0,0,0-1.569-1.569,5.532,5.532,0,0,0-.488-.28,5.286,5.286,0,0,0-2.142-.573c-.094,0-.186-.014-.281-.014a1.845,1.845,0,0,0-.28.014,5.308,5.308,0,0,0-2.144.573,5.193,5.193,0,0,0-.485.28,5.356,5.356,0,0,0-1.569,1.569,5.2,5.2,0,0,0-.28.485,5.308,5.308,0,0,0-.573,2.144c0,.092-.014.186-.014.28a1.861,1.861,0,0,0,.014.28,5.285,5.285,0,0,0,.573,2.142,5.585,5.585,0,0,0,.28.488,5.385,5.385,0,0,0,1.569,1.569c.155.1.318.193.485.28a5.31,5.31,0,0,0,2.144.573c.092,0,.186.014.28.014a1.867,1.867,0,0,0,.281-.014,5.287,5.287,0,0,0,2.142-.573c.167-.087.33-.179.488-.28a5.441,5.441,0,0,0,1.569-1.569c.1-.158.193-.32.28-.488a5.289,5.289,0,0,0,.573-2.142c0-.094.014-.186.014-.28a1.861,1.861,0,0,0-.014-.28,5.309,5.309,0,0,0-.573-2.144C825.8,289.464,825.707,289.3,825.605,289.146Zm-4.477,7.976a5.066,5.066,0,1,1,5.071-5.066,5.066,5.066,0,0,1-5.071,5.066Z" transform="translate(-623.559 -219.265)" fill="#0b1723"/>
      <path id="Path_231" data-name="Path 231" d="M830.536,299a2.443,2.443,0,1,0,2.441,2.443A2.444,2.444,0,0,0,830.536,299Z" transform="translate(-632.969 -228.656)" fill="#8fa6ac"/>
      <path id="Path_232" data-name="Path 232" d="M319.18,198.862l54.774-1.473c0-2.151.014-4.807.031-7.639-26.554.54-55.182.862-55.182.862l.429-3.214,54.8-4.309c.061-6.388.165-12.441.337-14.769.1-1.331.219-2.677.349-3.961l-5.184.137a1.39,1.39,0,0,1-.693.193h-1.329a3.346,3.346,0,0,1-3.063,2.356,2.5,2.5,0,0,1-2.528-2.34c-17.379.492-32.812,1.044-43.422,1.649C317.583,173.375,318.568,190.153,319.18,198.862Z" transform="translate(-243.162 -125.721)" fill="#dc2878"/>
      <path id="Path_233" data-name="Path 233" d="M22.952,193.064c6.491,2.637,17.589.664,18.753.448,3.122-5.431,8.76-10.014,18.955-10.3,18.425,0,22.461,14.384,23.291,22.278l3.574-.1c-.617-8.7-1.6-25.353-.681-32.5-3.428.2-6.343.4-8.64.606-12.836,1.155-24.542,1.489-33.976,1.475-1.593,2.288-5.634,5.681-10.132,8.88-7.354,5.224-15.753,1.013-17.313.146a30.558,30.558,0,0,0-1.343,2.787C15.947,188,17.664,190.915,22.952,193.064Z" transform="translate(-11.794 -132.243)" fill="#dc2878"/>
      <path id="Path_234" data-name="Path 234" d="M655.7,166.532c-2.472-1.14-2.75-5.318-2.632-10.132-9.005.137-20.105.316-32.268.53.071,1.239.118,2.538.118,3.822,0,5.57-4.927,9.917-4.976,9.962l-.184-.212c.049-.042,4.88-4.309,4.88-9.75,0-1.282-.047-2.58-.118-3.817l-7.043.127c0,.052.016.1.016.156a1.4,1.4,0,0,1-1.393,1.393h-.957a3.845,3.845,0,0,1-3.221,2.568c-1.9.2-2.663-1.079-2.924-2.568h-.4a1.4,1.4,0,0,1-1.388-1.355c-15.157.292-31.116.634-46.219,1.018-.13,1.294-.252,2.648-.351,3.989-.172,2.318-.276,8.353-.337,14.724l48.394-3.812s0,7.285-4.5,8.784c-2.019.674-22.259,1.261-43.955,1.7-.016,2.827-.026,5.483-.031,7.636l44.591-1.2c1.277-7.415,5.822-20.513,22-19.82,14.088.606,19.354,9.9,21.321,16.771a20.664,20.664,0,0,0-3-7.021c-3.643-4.929,16.069-13.07,19.924-10.07,0,0,.236-3.958.207-8.284-.028,2.995-.207,5.5-.207,5.5A8.817,8.817,0,0,1,655.7,166.532Z" transform="translate(-425.156 -119.633)" fill="#dc2878"/>
      <path id="Path_235" data-name="Path 235" d="M77.595,40.126c2.971-.287,3.282.841,1.993,2.691,9.425.014,21.14-.32,33.976-1.475,2.3-.207,5.212-.41,8.64-.606a9.492,9.492,0,0,1,.686-2.827c2.578-4.948,4.948-5.207,5.04-5.217l.026.28c-.021,0-2.321.287-4.816,5.068a8.833,8.833,0,0,0-.653,2.67c10.6-.6,26.043-1.155,43.422-1.649v-.016h-.577a1.393,1.393,0,0,1,0-2.785h.565c.082-.629.184-1.056.184-1.056l6.213-.236a11.816,11.816,0,0,1-.092,1.286h.629a1.388,1.388,0,0,1,.693,2.592l5.184-.137c.426-4.241.931-7.775.942-7.832l6-29.344.273.057-6,29.351c0,.04-.507,3.565-.942,7.775,15.1-.384,31.062-.726,46.219-1.018v-.038a1.4,1.4,0,0,1,1.393-1.392h.349c.075-.759.186-1.286.186-1.286h6.64a10.314,10.314,0,0,1-.019,1.286h.342a1.393,1.393,0,0,1,1.376,1.237l7.043-.127c-.236-4.064-.73-7.474-.738-7.519L234.288.955l.273-.071,7.5,28.924c0,.054.511,3.485.745,7.568,12.163-.214,23.263-.393,32.268-.53q.026-.919.061-1.861c.214-5.57,4.9-6.178,4.9-6.178a5.385,5.385,0,0,1,1.272,1.628c-3.947-8.548-14.773-25.166-20.423-27.586-6.748-2.893-67.488-4.18-91.908-.964S131.37,15.061,113.053,25.343C90.752,37.867,71.9,35.814,61.7,41.775,63.934,41.535,71.931,40.675,77.595,40.126ZM254.956,5.288a9.616,9.616,0,0,1,6.927,3.77L275.6,27.122a.551.551,0,0,1,.172.346.969.969,0,0,1,.04.356c.042,1.023-.384,2.752-1.027,2.759l-28.891.344L242.16,17.712l-3.824-13.55C245.317,4.576,251.219,5,254.956,5.288ZM187.979,3.207c12.959-.707,30.55-.12,45,.653L235.629,17.5l2.62,13.522-54.1.643L186.1,17.144Zm-50.531,12.04c9.064-4.533,23.588-9.7,45.43-11.665l-3.367,13.873-3.466,14.311-47.83.57,4.006-7.413Zm-29.026,16.09c4.875-2.71,16.312-9.069,23.562-13.133l-5.634,8.449-3.836,5.754-13.767.163c-.5,0-.773-.252-.643-.459a.641.641,0,0,1,.318-.773Z" transform="translate(-47.154 -0.001)" fill="#f962a7"/>
      <path id="Path_236" data-name="Path 236" d="M639.26,26.881l-2.646-13.645c-14.46-.773-32.044-1.357-45-.653L589.74,26.52C603.62,26.032,623.66,26.419,639.26,26.881Z" transform="translate(-450.778 -9.377)" fill="#5e7b7f"/>
      <path id="Path_237" data-name="Path 237" d="M827.99,31.7a13.444,13.444,0,0,1,6.927,1.993l13.715,6.955L834.918,22.586a9.615,9.615,0,0,0-6.927-3.77c-3.737-.287-9.632-.707-16.62-1.126l3.824,13.543C820.5,31.41,824.949,31.58,827.99,31.7Z" transform="translate(-620.188 -13.522)" fill="#5e7b7f"/>
      <path id="Path_238" data-name="Path 238" d="M408.291,29.073,411.658,15.2c-21.842,1.967-36.365,7.132-45.43,11.665L361,36.542l1.937-.573C371.2,33.531,385.551,30.379,408.291,29.073Z" transform="translate(-275.934 -11.619)" fill="#5e7b7f"/>
      <path id="Path_239" data-name="Path 239" d="M258.895,90.965c3.737-1.093,11.328-3.32,17.94-5.266l5.622-8.449c-7.257,4.064-18.694,10.424-23.562,13.136a.641.641,0,0,0-.306.773A.532.532,0,0,1,258.895,90.965Z" transform="translate(-197.626 -59.079)" fill="#5e7b7f"/>
      <path id="Path_240" data-name="Path 240" d="M258.565,118.567c-.13.207.139.471.643.459l13.767-.163,3.836-5.754c-6.611,1.946-14.2,4.173-17.94,5.266A.533.533,0,0,0,258.565,118.567Z" transform="translate(-197.609 -86.5)" fill="#004550"/>
      <path id="Path_241" data-name="Path 241" d="M635.528,85.9l-2.613-13.522c-15.6-.471-35.64-.848-49.527-.36L581.44,86.546Z" transform="translate(-444.434 -54.905)" fill="#004550"/>
      <path id="Path_242" data-name="Path 242" d="M391.83,88.391l3.459-14.311c-22.732,1.305-37.079,4.458-45.347,6.9l-1.937.573L344,88.962Z" transform="translate(-262.939 -56.655)" fill="#004550"/>
      <path id="Path_243" data-name="Path 243" d="M840.4,75.631c-3.032-.123-7.49-.292-12.8-.471l3.732,13.223,28.891-.344c.643,0,1.07-1.737,1.027-2.759a1.958,1.958,0,0,0-.04-.356.551.551,0,0,0-.172-.346l-13.715-6.953A13.445,13.445,0,0,0,840.4,75.631Z" transform="translate(-632.594 -57.48)" fill="#004550"/>
      <path id="Path_244" data-name="Path 244" d="M600.351,304.349l.537-4.929h-.038l-44.591,1.2v4.969Z" transform="translate(-425.187 -228.979)" fill="#282f39"/>
      <path id="Path_245" data-name="Path 245" d="M309.287,310.82l-3.574.1h-.153l.323,5.033,3.786-.106C309.6,315.03,309.459,313.23,309.287,310.82Z" transform="translate(-233.556 -237.696)" fill="#282f39"/>
      <path id="Path_246" data-name="Path 246" d="M322.6,306.013c.172,2.441.313,4.241.377,5.028l54.381-1.529V304.54Z" transform="translate(-246.581 -232.895)" fill="#282f39"/>
      <path id="Path_247" data-name="Path 247" d="M321.434,248.159,321,251.373s28.623-.323,55.177-.862c.014-2.165.031-4.434.052-6.661Z" transform="translate(-245.358 -186.484)" fill="#fc3a92"/>
      <path id="Path_248" data-name="Path 248" d="M600.345,236.374c4.5-1.5,4.5-8.784,4.5-8.784l-48.4,3.808c-.021,2.234-.038,4.507-.052,6.68C578.086,237.634,598.325,237.048,600.345,236.374Z" transform="translate(-425.286 -174.052)" fill="#fc3a92"/>
      <path id="Path_249" data-name="Path 249" d="M506.521,168.116a3.341,3.341,0,0,0,3.063-2.356H504v.017A2.47,2.47,0,0,0,506.521,168.116Z" transform="translate(-385.24 -126.761)" fill="#282f39"/>
      <path id="Path_250" data-name="Path 250" d="M510.317,148.48l-6.213.236s-.1.426-.184,1.056h6.305A11.817,11.817,0,0,0,510.317,148.48Z" transform="translate(-385.179 -113.546)" fill="#282f39"/>
      <path id="Path_251" data-name="Path 251" d="M766.194,168.328a3.846,3.846,0,0,0,3.221-2.568H763.27C763.531,167.249,764.293,168.531,766.194,168.328Z" transform="translate(-583.422 -126.761)" fill="#282f39"/>
      <path id="Path_252" data-name="Path 252" d="M769.879,148.48h-6.633s-.111.528-.186,1.286h6.819A10.3,10.3,0,0,0,769.879,148.48Z" transform="translate(-583.261 -113.546)" fill="#282f39"/>
      <path id="Path_253" data-name="Path 253" d="M504.5,156.725a1.393,1.393,0,0,0,0-2.785H497a1.393,1.393,0,0,0,0,2.785Z" transform="translate(-378.827 -117.722)" fill="#47586b"/>
      <path id="Path_254" data-name="Path 254" d="M757.062,156.725h7.5a1.4,1.4,0,0,0,1.393-1.393c0-.054-.012-.1-.017-.156a1.393,1.393,0,0,0-1.376-1.237h-7.5a1.4,1.4,0,0,0-1.392,1.393v.038a1.4,1.4,0,0,0,1.393,1.355Z" transform="translate(-577.612 -117.722)" fill="#47586b"/>
      <path id="Path_255" data-name="Path 255" d="M972.172,122.26s-4.689.608-4.9,6.178q-.035.942-.061,1.861c-.118,4.818.16,9,2.632,10.132a8.817,8.817,0,0,0,5.356.643s.179-2.5.207-5.5a38.7,38.7,0,0,0-.528-7.775h0c-.071-.313-.146-.608-.236-.891a13.08,13.08,0,0,0-1.206-3.016A5.263,5.263,0,0,0,972.172,122.26Z" transform="translate(-739.291 -93.505)" fill="#dc1b15"/>
      <path id="Path_256" data-name="Path 256" d="M318.615,184.36c-.064-.78-.2-2.592-.377-5.028-.613-8.718-1.6-25.487-.686-32.515a8.932,8.932,0,0,1,.653-2.67c2.5-4.774,4.795-5.056,4.816-5.056l-.026-.28c-.1,0-2.462.278-5.04,5.217a9.337,9.337,0,0,0-.686,2.827c-.921,7.146.064,23.8.681,32.5.172,2.41.316,4.21.382,5.028Z" transform="translate(-242.22 -106.194)" fill="#682929"/>
      <path id="Path_257" data-name="Path 257" d="M555.326,81.693V76.724c0-2.154.014-4.807.031-7.636.014-2.172.031-4.446.052-6.68.061-6.362.165-12.405.337-14.724.1-1.341.221-2.7.351-3.989.424-4.213.926-7.738.943-7.775l6-29.353-.273-.057-6,29.36c0,.047-.511,3.6-.942,7.832-.13,1.284-.25,2.629-.349,3.961-.172,2.328-.276,8.381-.337,14.769-.021,2.227-.038,4.5-.052,6.661-.016,2.827-.026,5.488-.031,7.639V81.7Z" transform="translate(-424.262 -4.976)" fill="#682929"/>
      <path id="Path_258" data-name="Path 258" d="M797.663,53.814l.184.212c.05-.045,4.976-4.392,4.976-9.962,0-1.284-.047-2.592-.118-3.822-.236-4.083-.735-7.514-.745-7.568l-7.5-28.924-.273.071,7.495,28.908c0,.045.5,3.454.738,7.519.071,1.237.118,2.535.118,3.817C802.543,49.5,797.712,53.772,797.663,53.814Z" transform="translate(-607.056 -2.867)" fill="#682929"/>
      <path id="Path_259" data-name="Path 259" d="M915.171,221.924a20.9,20.9,0,0,1,3,7.021,43.673,43.673,0,0,1,1.178,7.332s6.534.858,10.176-.643,6.213-4.927,7.5-9.856c1.006-3.857,1.616-8.369-.014-11.585a6.815,6.815,0,0,0-1.916-2.34C931.24,208.854,911.528,216.995,915.171,221.924Z" transform="translate(-699.19 -161.54)" fill="#282f39"/>
      <path id="Path_260" data-name="Path 260" d="M29.673,237.089c.1-.137.2-.266.3-.384l-.1.021c-1.164.217-12.252,2.189-18.753-.448-5.287-2.161-7-5.08-7.514-6.291a3.51,3.51,0,0,1-.2-.577s-3.643,4.284-3.438,12.862,6.437,12.634,12.017,13.06,14.354.429,14.354.429.146-10.292,2.106-16.09a10.085,10.085,0,0,1,1.223-2.582Z" transform="translate(0.035 -175.491)" fill="#282f39"/>
      <path id="Path_261" data-name="Path 261" d="M37.6,181.727c4.5-3.2,8.541-6.6,10.132-8.88,1.289-1.85.978-2.978-1.993-2.691-5.655.549-13.666,1.414-15.895,1.649h0l-.6.066s-.907.707-2.17,1.831c-.942.827-2.071,1.885-3.176,3.014a22.3,22.3,0,0,0-3.866,5.012s.09.054.257.146C21.849,182.74,30.249,186.95,37.6,181.727Z" transform="translate(-15.302 -130.097)" fill="#d8e1fd"/>
    </g>
  </g>
</svg>
